<?xml version="1.0" standalone="no"?>
<!DOCTYPE svg PUBLIC "-//W3C//DTD SVG 20010904//EN"
 "http://www.w3.org/TR/2001/REC-SVG-20010904/DTD/svg10.dtd">
<svg version="1.0" xmlns="http://www.w3.org/2000/svg"
 width="340.000000pt" height="340.000000pt" viewBox="0 0 340.000000 340.000000"
 preserveAspectRatio="xMidYMid meet">
<metadata>
Created by potrace 1.11, written by Peter Selinger 2001-2013
</metadata>
<g transform="translate(0.000000,340.000000) scale(0.100000,-0.100000)"
fill="#000000" stroke="none">
<path d="M1635 2829 c4 -6 10 -8 13 -5 3 3 14 -1 24 -11 18 -16 24 -34 11 -32
-20 3 -26 -2 -13 -11 12 -8 12 -10 1 -10 -11 0 -10 -4 3 -19 19 -21 14 -41
-10 -41 -8 0 -15 10 -15 23 -1 16 -2 18 -6 5 -6 -25 -21 -22 -25 5 -2 12 -4
-2 -4 -32 0 -32 -5 -56 -12 -59 -6 -2 -9 -11 -6 -20 5 -16 5 -16 -5 -1 -10 15
-56 34 -73 31 -4 -1 -3 9 2 22 15 41 23 109 11 101 -6 -3 -11 -12 -11 -19 0
-21 -40 -28 -41 -8 0 13 -3 11 -9 -4 -5 -12 -14 -25 -20 -29 -8 -5 -8 -11 1
-21 9 -11 8 -14 -5 -14 -9 0 -16 -7 -16 -15 0 -8 -4 -15 -10 -15 -5 0 -10 -4
-10 -9 0 -5 6 -9 13 -8 35 1 48 -5 61 -31 9 -18 11 -33 5 -43 -5 -8 -9 -9 -9
-4 0 6 -4 4 -9 -4 -5 -7 -14 -11 -20 -7 -7 5 -6 15 6 32 14 22 14 27 2 35 -8
5 -18 9 -24 9 -5 0 -3 -4 5 -10 12 -8 12 -10 -3 -16 -9 -3 -17 -15 -17 -25 0
-11 -7 -22 -15 -25 -8 -4 -12 -10 -9 -15 3 -5 13 -5 24 1 25 14 30 13 30 -6 0
-13 3 -14 13 -6 10 9 19 7 36 -5 21 -14 22 -17 7 -25 -11 -6 -22 -6 -31 2 -11
9 -18 8 -31 -5 -18 -18 -45 -17 -52 3 -2 7 2 10 12 6 10 -4 16 -1 16 10 0 9
-6 13 -13 10 -19 -7 -37 38 -37 89 0 46 12 73 28 63 6 -3 14 -1 18 5 4 8 3 9
-5 5 -7 -4 -10 -2 -9 5 5 20 -18 20 -42 -1 -13 -11 -18 -20 -12 -20 7 0 12
-12 12 -26 0 -24 -3 -25 -27 -19 -33 8 -29 4 -46 38 -11 21 -12 36 -4 67 22
80 48 33 33 -60 -4 -27 -3 -31 5 -17 6 9 11 36 11 58 0 36 2 39 22 33 11 -3
33 -17 47 -31 26 -23 27 -24 32 -4 3 11 1 21 -4 23 -13 4 41 68 57 68 7 0 15
6 18 13 3 6 3 2 0 -10 -6 -27 11 -31 24 -7 13 23 31 9 24 -19 -5 -19 -3 -20
10 -10 8 7 19 9 23 5 5 -4 5 -2 1 5 -3 6 -2 14 3 18 5 3 14 -3 20 -12 10 -17
10 -17 11 0 0 9 5 17 10 17 6 0 10 5 10 11 0 8 -5 7 -16 -2 -16 -13 -23 -8
-38 26 -3 6 -10 3 -15 -7 -7 -10 -19 -14 -31 -11 -11 3 -17 9 -14 14 3 5 -8 9
-25 9 -21 0 -29 -4 -25 -13 4 -12 -30 -52 -51 -59 -5 -2 -10 -9 -12 -16 -3
-25 -13 -26 -14 -1 0 18 -2 20 -7 8 -6 -14 -11 -14 -42 -1 -19 8 -29 17 -22
19 16 6 5 23 -14 23 -9 0 -12 -5 -8 -12 4 -7 3 -8 -5 -4 -9 6 -9 11 -1 21 9
11 6 12 -17 6 -15 -5 -27 -13 -25 -20 3 -14 -50 -3 -60 13 -4 6 -8 -2 -8 -17
0 -25 -3 -27 -22 -21 -26 8 -39 24 -31 38 3 5 1 6 -5 3 -5 -4 -8 -16 -5 -26 7
-27 -36 -40 -53 -16 -8 10 -11 21 -9 26 3 4 -5 5 -17 1 -25 -6 -70 -47 -62
-55 3 -3 -4 -8 -15 -12 -21 -6 -29 -25 -11 -25 6 0 10 5 10 10 0 6 6 10 13 10
8 0 18 9 23 20 l9 20 13 -20 c10 -17 10 -20 -3 -20 -8 0 -15 -5 -15 -11 0 -5
5 -7 11 -4 6 4 26 -10 45 -31 28 -30 34 -43 29 -63 -6 -24 -5 -24 7 -8 12 17
15 16 47 -16 18 -20 28 -37 23 -41 -13 -8 -42 3 -42 16 0 5 -9 6 -20 3 -13 -4
-20 -2 -20 7 0 10 -2 10 -9 -1 -12 -19 -67 -5 -86 22 -18 26 -49 33 -40 9 5
-13 3 -14 -6 -5 -11 11 -4 37 9 29 4 -2 13 2 20 10 7 8 9 14 5 15 -4 0 1 4 12
9 20 8 20 9 -1 9 -11 1 -24 4 -28 8 -4 4 -17 8 -29 8 -16 0 -22 6 -21 23 0 12
-2 22 -6 22 -11 0 -75 -59 -63 -60 13 0 5 -40 -8 -40 -6 0 -14 10 -19 23 -9
22 -9 22 -9 1 -1 -18 -7 -22 -37 -22 -26 0 -34 4 -30 14 3 8 2 14 -3 14 -13 0
-32 -26 -24 -33 3 -4 1 -7 -7 -7 -10 0 -10 -3 1 -16 10 -13 10 -17 -2 -25 -22
-14 -47 -11 -57 7 -6 10 -12 13 -16 6 -3 -5 1 -12 9 -16 8 -3 15 -12 15 -21 0
-8 5 -15 10 -15 6 0 9 -10 9 -22 -1 -17 -2 -19 -6 -5 -6 24 -23 21 -23 -4 0
-19 4 -21 30 -15 22 4 30 2 30 -9 0 -8 6 -15 14 -15 8 0 18 -5 22 -12 4 -6 3
-8 -4 -4 -6 3 -13 2 -17 -4 -4 -6 -11 -7 -17 -4 -7 4 -8 2 -4 -5 5 -7 16 -9
28 -5 13 4 18 2 14 -4 -3 -5 1 -12 9 -16 9 -3 14 -16 13 -30 -2 -19 -5 -22
-15 -14 -7 6 -13 19 -13 29 0 11 -7 19 -16 19 -9 0 -12 -5 -8 -12 4 -7 3 -8
-5 -4 -6 4 -9 12 -6 17 4 5 -5 9 -19 9 -32 0 -34 18 -4 29 18 6 19 9 5 14 -10
4 -17 2 -17 -3 0 -21 -29 -8 -59 26 -26 31 -33 35 -46 24 -20 -16 -19 -40 1
-40 11 0 14 5 10 17 -4 9 11 -4 33 -28 22 -24 36 -47 33 -50 -13 -12 -55 -22
-48 -11 3 5 -1 13 -10 16 -8 3 -13 2 -9 -3 3 -5 0 -22 -7 -38 -6 -15 -11 -31
-10 -35 1 -5 -1 -8 -6 -9 -4 0 -20 -3 -35 -5 -22 -4 -27 -2 -21 8 6 11 5 11
-8 0 -14 -11 -17 -10 -22 6 -9 26 -54 35 -65 13 -5 -9 -9 -30 -9 -48 -1 -38
-28 -93 -46 -93 -7 0 -12 -10 -12 -22 1 -17 -4 -22 -18 -20 -16 3 -18 1 -8
-10 9 -11 6 -20 -13 -41 -27 -29 -32 -47 -12 -47 7 0 18 14 24 30 6 17 17 30
23 30 7 0 10 -7 6 -16 -3 -8 -2 -12 4 -9 6 3 10 3 10 -2 0 -4 -16 -18 -35 -31
-19 -12 -35 -29 -35 -38 0 -15 2 -15 23 0 41 29 57 37 57 27 0 -5 -8 -12 -18
-14 -14 -4 -14 -5 3 -6 17 -1 18 -3 5 -11 -9 -6 -11 -10 -3 -10 14 0 6 -31
-11 -42 -6 -4 -3 -14 8 -27 19 -21 19 -21 -3 -21 -12 0 -20 3 -18 8 3 4 -8 7
-24 7 -16 0 -29 -3 -29 -6 0 -10 33 -22 53 -20 9 1 17 -4 17 -11 0 -10 3 -9
10 2 5 8 12 11 16 7 11 -11 -3 -20 -33 -22 -50 -3 -53 -5 -53 -21 0 -12 3 -14
13 -6 6 5 27 8 45 6 17 -2 32 1 32 6 0 15 12 12 40 -10 21 -17 21 -19 5 -14
-17 5 -17 3 4 -14 l23 -19 -31 5 c-17 2 -28 8 -25 13 3 5 -2 9 -11 9 -12 0
-14 -6 -9 -27 6 -24 5 -26 -8 -15 -9 7 -23 10 -32 6 -9 -3 -16 -1 -16 5 0 6 6
11 13 11 6 0 4 5 -6 11 -23 14 -27 10 -17 -18 5 -12 21 -24 39 -28 17 -4 31
-10 31 -15 0 -4 15 -13 33 -19 l32 -11 -24 19 c-13 10 -21 23 -17 30 8 13 46
15 46 2 0 -5 9 -11 20 -14 15 -4 20 0 20 14 0 20 24 26 35 9 3 -5 12 -10 18
-10 24 1 -28 30 -53 30 -18 0 -34 10 -48 30 -18 24 -20 30 -7 30 8 0 15 -4 15
-9 0 -5 9 -7 20 -4 16 4 19 2 13 -12 -4 -13 -3 -16 5 -11 7 4 12 3 12 -2 0 -5
10 -12 22 -15 13 -2 32 -8 43 -11 11 -4 3 2 -19 14 -36 20 -38 24 -33 58 6 34
6 35 -9 14 -19 -27 -36 -28 -58 -3 -17 18 -16 20 13 37 16 10 28 21 26 25 -3
4 5 9 18 13 14 4 32 -2 51 -16 16 -11 25 -14 20 -7 -9 15 -10 20 -12 57 -1 14
-11 26 -26 32 -41 15 -41 30 1 30 21 0 33 -4 27 -8 -9 -5 -8 -11 3 -21 12 -11
14 -10 11 4 -2 10 3 20 9 22 8 3 13 -4 13 -17 0 -12 4 -18 10 -15 6 4 4 17 -5
36 l-16 29 31 0 c16 0 30 -4 30 -9 0 -5 -10 -7 -22 -5 -22 4 -21 4 1 -6 25
-11 40 -1 41 27 0 7 10 17 22 24 17 9 20 9 15 -4 -4 -11 0 -13 14 -10 10 3 26
2 35 -1 16 -6 15 -8 -2 -22 -18 -14 -18 -15 3 -4 17 8 24 7 31 -6 5 -8 20 -23
35 -33 32 -20 80 -89 72 -102 -4 -5 1 -12 9 -15 16 -6 23 -25 9 -23 -20 3 -23
-2 -9 -17 9 -8 14 -20 11 -25 -4 -5 1 -6 10 -2 12 4 13 8 4 13 -6 5 -9 16 -5
25 4 12 10 14 19 7 7 -5 21 -6 32 -1 18 7 18 8 -5 9 -25 1 -60 21 -60 35 0 4
7 5 15 1 8 -3 15 -2 15 3 0 10 50 25 57 17 3 -3 7 -25 8 -49 3 -41 2 -44 -19
-40 -15 3 -25 -1 -29 -11 -6 -16 4 -22 16 -9 4 3 18 7 31 8 20 0 24 -4 21 -25
-2 -14 -8 -24 -15 -22 -6 1 -8 -2 -5 -8 5 -8 13 -6 24 4 24 21 37 20 20 -1
-13 -17 -12 -17 6 -1 16 13 22 14 31 4 9 -10 3 -30 -23 -84 -19 -39 -40 -71
-46 -69 -7 1 -11 -6 -9 -15 4 -22 -2 -23 -22 -2 -9 8 -16 27 -16 42 0 25 1 25
16 6 14 -18 15 -18 4 4 -6 12 -15 22 -20 22 -5 0 -12 9 -15 20 -6 20 -35 28
-35 10 0 -5 -9 -10 -20 -10 -11 0 -20 -3 -20 -7 0 -5 13 -8 29 -8 21 0 27 4
23 15 -4 11 -2 12 7 4 19 -18 26 -85 10 -95 -11 -7 -9 -9 7 -9 11 0 28 -8 38
-19 16 -17 15 -19 -6 -34 -15 -10 -18 -15 -8 -14 40 1 50 -4 50 -25 0 -13 7
-44 15 -70 8 -27 10 -48 6 -48 -5 0 -12 8 -15 17 -5 12 -10 13 -18 5 -11 -11
-39 -5 -50 12 -5 7 -8 7 -8 -1 0 -7 -7 -13 -16 -13 -8 0 -13 4 -10 9 8 12 -21
34 -34 26 -5 -3 -10 -1 -10 4 0 6 -5 11 -11 11 -5 0 -8 -4 -5 -8 2 -4 -4 -9
-15 -9 -10 -1 -19 3 -19 8 0 6 5 7 10 4 6 -3 10 1 10 9 0 8 -9 20 -20 26 -11
6 -20 8 -20 4 0 -3 -8 0 -17 7 -11 10 -14 10 -9 2 4 -7 2 -13 -3 -13 -6 0 -11
-4 -11 -10 0 -6 9 -6 25 0 17 6 25 6 25 -1 0 -6 6 -7 13 -4 6 4 4 0 -5 -8 -11
-8 -14 -17 -8 -23 5 -5 6 -15 0 -24 -11 -17 -21 -10 -23 17 0 11 -7 20 -14 20
-9 0 -10 -4 -2 -14 9 -10 7 -14 -6 -19 -22 -9 -37 14 -24 37 6 12 5 20 -3 25
-7 5 -8 3 -3 -6 5 -8 4 -11 -3 -6 -6 4 -9 13 -6 21 4 8 11 12 17 8 6 -4 7 -1
2 6 -5 9 -11 9 -17 3 -6 -6 -17 -8 -24 -5 -8 3 -14 0 -14 -7 0 -6 4 -9 9 -5 6
3 16 -23 23 -57 6 -35 14 -55 16 -45 4 18 17 23 27 8 9 -16 60 -5 59 13 -2 21
12 21 20 0 4 -10 -1 -25 -10 -36 -10 -10 -14 -21 -11 -25 4 -3 7 -1 7 5 0 20
27 13 33 -8 6 -23 -7 -35 -25 -23 -7 4 -17 8 -23 9 -5 0 -16 2 -22 2 -19 3
-15 30 5 34 11 2 13 6 6 10 -6 4 -19 2 -29 -6 -15 -11 -16 -15 -4 -34 8 -12
23 -22 34 -22 11 0 27 -5 35 -11 11 -8 7 -9 -16 -4 -29 6 -30 5 -26 -24 2 -19
11 -31 24 -34 11 -3 17 -10 14 -16 -4 -6 -14 -8 -24 -5 -14 5 -14 3 2 -10 23
-19 42 -20 52 -4 5 7 2 9 -9 5 -11 -4 -14 -2 -10 9 3 8 -3 21 -13 29 -11 7
-16 17 -11 21 4 4 7 2 7 -4 0 -7 5 -12 11 -12 5 0 8 4 4 9 -3 6 3 9 14 8 15
-1 17 -4 9 -14 -6 -8 -8 -16 -4 -20 3 -3 6 -1 6 5 0 7 7 12 15 12 18 0 20 -16
3 -23 -10 -4 -10 -6 0 -6 6 -1 12 -5 12 -11 0 -5 -6 -9 -12 -7 -7 1 -12 -4
-10 -11 1 -8 -2 -11 -8 -7 -6 4 -10 -4 -10 -19 0 -24 30 -52 43 -40 3 3 24
-13 46 -35 23 -23 48 -41 56 -41 8 0 15 -4 15 -10 0 -5 16 0 35 11 l35 21 10
-26 c6 -17 14 -24 25 -20 10 4 15 0 15 -14 0 -28 8 -32 84 -37 54 -4 64 -2 59
10 -3 10 1 15 11 15 9 0 19 -7 22 -15 4 -8 10 -12 15 -9 5 3 7 9 4 13 -2 5 4
18 14 30 18 20 20 21 29 5 6 -11 11 -13 16 -5 4 6 13 11 19 11 8 0 8 -3 2 -8
-5 -4 -17 -16 -25 -27 -15 -20 -14 -20 8 -1 21 18 23 19 35 2 11 -15 21 -17
63 -10 27 4 43 9 36 11 -6 3 -10 9 -7 13 3 5 1 11 -5 15 -5 3 -10 1 -10 -5 0
-6 -4 -8 -10 -5 -5 3 -10 11 -10 16 0 6 5 7 10 4 13 -8 13 -2 -4 31 -8 15 -13
31 -10 36 3 5 2 8 -3 7 -22 -4 -33 3 -33 21 0 13 -6 20 -17 19 -11 0 -13 -3
-5 -6 6 -2 12 -9 12 -15 0 -6 -9 -3 -20 7 -21 19 -19 30 7 30 9 0 17 9 19 20
2 11 8 21 14 23 5 2 8 8 5 12 -6 9 33 50 47 50 13 0 9 -18 -4 -23 -7 -3 -3 -6
10 -6 24 -1 30 -16 10 -24 -10 -4 -10 -6 0 -6 6 -1 12 -10 12 -22 0 -11 -4
-17 -10 -14 -5 3 -10 2 -10 -4 0 -5 8 -14 18 -20 14 -8 15 -13 5 -30 -8 -13
-9 -22 -3 -26 17 -10 12 -45 -5 -39 -8 4 -15 1 -15 -5 0 -6 5 -11 12 -11 6 0
9 -3 5 -6 -11 -11 65 -145 81 -143 19 3 32 -2 32 -12 0 -8 -5 -8 -15 1 -31 26
-14 -2 19 -31 42 -36 104 -141 231 -390 5 -10 14 -19 19 -19 6 0 20 -12 33
-27 20 -25 22 -26 24 -8 1 11 1 24 0 29 -4 20 11 43 37 58 28 17 37 43 22 63
-4 6 -10 21 -13 35 -6 24 -4 25 38 25 25 0 45 -3 45 -8 0 -10 23 -4 32 8 5 7
8 6 8 -1 0 -5 19 -11 41 -11 27 0 37 2 28 8 -10 6 -6 9 12 9 15 0 29 -6 32
-14 6 -14 30 -16 43 -4 3 4 12 4 19 2 7 -3 16 0 20 6 4 7 0 10 -11 8 -14 -2
-18 3 -17 17 1 14 -2 12 -9 -7 l-12 -27 -33 55 c-39 64 -39 64 -14 64 14 0 18
-6 15 -26 -1 -15 2 -24 9 -21 6 2 11 18 11 36 -1 31 -1 31 18 14 15 -13 16
-19 6 -23 -7 -3 -14 -18 -15 -35 -2 -21 0 -26 7 -15 5 8 6 18 4 22 -3 4 -1 8
5 8 5 0 13 9 16 20 4 11 11 18 16 14 6 -3 8 -13 4 -21 -5 -13 -3 -14 10 -3 12
10 13 15 4 20 -8 6 -8 9 2 12 8 3 -4 8 -26 13 -33 6 -37 9 -20 15 31 13 75 11
75 -2 0 -10 2 -10 9 0 6 11 11 10 25 -3 9 -9 16 -20 16 -25 0 -4 7 -10 15 -14
20 -7 15 15 -8 36 -14 12 -15 17 -5 21 7 2 3 2 -9 1 -12 -2 -25 0 -28 6 -3 5
-21 8 -40 5 -36 -4 -55 9 -36 28 7 7 16 6 29 -7 19 -16 20 -16 25 5 4 13 10
18 18 13 9 -5 10 -2 6 10 -5 13 -3 15 11 8 9 -5 33 -12 52 -15 19 -3 29 -3 22
0 -6 2 -10 8 -7 13 3 4 -3 6 -14 3 -10 -3 -22 1 -26 8 -5 7 -4 10 3 5 5 -3 12
0 15 6 6 19 -4 49 -14 42 -18 -11 -8 16 13 35 22 21 59 23 66 3 2 -7 8 -10 13
-7 10 7 58 -21 77 -44 7 -8 22 -16 35 -17 12 -1 28 -3 36 -5 20 -6 37 49 22
73 -13 21 -14 28 -3 27 4 -1 16 -1 27 0 17 1 18 3 5 11 -13 8 -12 10 5 11 11
1 29 1 40 0 20 -2 20 -2 0 13 -11 8 -22 11 -25 7 -9 -14 -50 -19 -57 -9 -3 6
-1 8 5 4 6 -3 14 -1 17 5 9 13 6 15 -25 23 -19 6 -21 5 -10 -3 9 -7 10 -11 3
-11 -21 0 -27 23 -8 36 11 9 25 10 40 4 17 -6 27 -5 36 6 11 14 14 13 22 -2 6
-11 5 -19 -4 -26 -12 -7 -11 -9 1 -7 34 3 49 -2 44 -15 -6 -17 17 -27 46 -19
16 4 18 8 8 14 -10 7 -9 9 5 9 9 0 17 5 17 10 0 6 5 10 11 10 5 0 7 -4 4 -10
-3 -6 1 -7 9 -4 9 3 16 15 16 26 0 13 5 18 14 15 16 -6 43 19 32 30 -10 10
-56 -15 -56 -32 0 -8 -7 -15 -16 -15 -8 0 -12 5 -9 11 4 6 -2 5 -13 -2 -12 -7
-18 -17 -16 -21 3 -4 0 -8 -6 -8 -7 0 -14 9 -17 20 -5 19 -6 19 -18 4 -9 -13
-14 -14 -19 -5 -10 16 -4 22 23 24 23 1 27 12 10 22 -6 5 -4 12 8 21 17 13 17
13 -5 14 -12 0 -21 6 -20 13 2 6 -3 11 -9 9 -7 -1 -13 2 -13 8 0 5 3 10 8 11
4 0 15 2 25 4 13 2 17 -1 13 -10 -3 -8 -1 -17 4 -20 6 -4 10 4 10 16 0 18 3
20 12 11 8 -8 8 -15 0 -25 -7 -8 -9 -17 -5 -20 3 -4 0 -13 -7 -22 -7 -8 -8
-15 -2 -15 5 0 16 10 24 21 12 19 17 20 37 9 15 -7 21 -8 17 -1 -9 15 27 14
41 0 11 -11 33 -5 33 10 0 4 -10 13 -22 20 -22 11 -22 11 4 8 15 -2 25 0 22 4
-3 5 -1 9 4 9 6 0 12 7 15 15 5 11 1 12 -16 6 -16 -6 -27 -3 -39 9 -17 16 -16
19 13 59 19 25 37 40 45 37 7 -3 16 -1 19 4 4 6 1 10 -5 10 -8 0 -8 6 0 21 7
11 9 23 6 27 -3 3 -6 2 -6 -2 0 -3 -13 0 -30 9 -34 17 -44 19 -35 5 8 -13 -1
-13 -28 1 -22 12 -22 12 -3 -10 11 -11 14 -21 8 -21 -6 0 -14 5 -17 10 -3 6
-14 10 -23 9 -11 0 -12 -3 -4 -6 6 -2 12 -11 12 -19 0 -9 5 -13 13 -9 6 4 3
-1 -8 -10 -19 -15 -19 -15 5 -11 14 2 24 9 22 16 -1 6 2 8 8 5 7 -4 14 2 17
14 7 27 38 24 38 -4 0 -14 -8 -21 -28 -23 -23 -3 -26 -6 -17 -17 13 -16 4 -39
-11 -29 -5 3 -7 9 -4 14 3 4 -2 11 -11 14 -12 4 -15 2 -10 -9 3 -9 0 -15 -10
-15 -8 0 -12 4 -9 10 3 6 -1 7 -9 4 -19 -7 -20 0 -6 27 14 25 -2 25 -18 -1
-12 -20 -13 -20 -47 6 -36 27 -47 51 -19 40 13 -5 14 -4 5 7 -8 11 -7 18 7 31
10 9 22 13 27 9 4 -5 5 -3 2 3 -10 17 28 42 57 37 14 -3 23 -10 19 -16 -3 -5
-1 -7 5 -3 6 3 13 2 17 -4 8 -13 25 -13 25 1 0 5 -4 7 -10 4 -5 -3 -10 -1 -10
5 0 7 6 10 13 7 6 -2 12 -14 12 -27 0 -13 6 -25 14 -28 8 -3 11 0 7 7 -5 7 -1
9 8 5 9 -3 16 -12 16 -20 0 -7 6 -11 14 -8 9 3 14 28 15 80 l2 76 -32 -7 c-29
-7 -31 -5 -26 14 3 11 1 21 -5 21 -5 0 -7 4 -3 9 3 5 1 12 -5 16 -5 3 -10 1
-10 -4 0 -6 -9 -11 -20 -11 -14 0 -20 7 -20 22 0 12 3 19 6 15 4 -3 22 5 42
18 35 24 50 26 37 6 -3 -6 -13 -11 -21 -11 -8 0 -14 -5 -14 -10 0 -7 6 -7 18
-2 9 5 22 7 28 5 7 -2 10 11 8 38 -4 56 -11 72 -28 66 -8 -3 -17 -3 -20 1 -12
11 -43 8 -43 -4 0 -9 5 -10 18 -4 12 7 20 5 29 -5 9 -11 7 -16 -10 -25 -12 -6
-28 -9 -36 -6 -8 3 -14 1 -14 -5 0 -6 -8 -9 -17 -7 -12 2 -17 14 -18 44 -1 36
1 42 19 42 42 0 61 9 64 30 2 12 8 22 13 22 6 0 7 5 4 10 -4 6 -12 10 -18 9
-38 -5 -57 2 -57 21 0 11 5 20 11 20 5 0 7 -6 3 -12 -5 -8 0 -7 11 2 16 14 16
15 1 18 -9 2 -14 8 -10 13 3 6 3 22 -1 36 l-6 26 -24 -23 c-14 -13 -22 -27
-18 -33 3 -6 1 -7 -5 -3 -13 8 -17 38 -4 33 4 -1 8 3 10 8 2 6 10 17 18 26 21
24 -5 42 -51 36 -37 -5 -44 3 -20 23 12 10 15 10 15 -1 0 -9 3 -10 11 -2 14
14 3 34 -15 27 -7 -3 -13 1 -14 8 -7 78 -45 170 -81 201 -24 19 -51 23 -51 6
0 -6 -8 -21 -18 -32 -21 -27 -47 -35 -39 -12 4 8 2 15 -4 15 -6 0 -7 5 -4 10
3 6 -1 10 -10 10 -22 0 -59 36 -46 45 6 3 11 11 11 17 0 7 -6 6 -15 -2 -12
-10 -15 -9 -15 4 0 9 7 19 15 22 8 4 15 12 15 20 0 8 9 14 20 14 18 0 19 3 10
20 -6 12 -21 26 -34 31 -12 6 -28 25 -34 42 -10 26 -14 29 -22 17 -6 -10 -6
-16 0 -18 6 -2 10 -8 10 -14 0 -7 -4 -7 -13 0 -7 6 -28 14 -47 17 -47 8 -59
22 -26 31 33 8 51 37 33 53 -14 11 -57 4 -57 -9 0 -9 -34 -23 -64 -25 -17 -2
-17 -1 -2 10 19 14 21 26 4 23 -13 -3 -15 18 -7 56 3 14 -2 19 -20 21 -13 1
-28 9 -32 18 -5 9 -16 14 -24 11 -8 -4 -15 -2 -15 4 0 5 -9 12 -20 15 -15 4
-20 0 -20 -14 0 -11 -14 -28 -32 -39 -40 -24 -47 -25 -47 -2 -2 46 -6 59 -16
55 -6 -2 -17 8 -24 23 -6 15 -14 24 -17 22 -2 -3 7 -26 22 -51 14 -26 23 -51
20 -56 -4 -5 -2 -12 4 -16 5 -3 10 -11 10 -16 0 -6 -4 -8 -9 -4 -5 3 -12 1
-16 -4 -3 -6 -13 -7 -23 -4 -16 5 -16 5 0 -8 19 -15 16 -23 -18 -52 -18 -15
-26 -16 -48 -6 -27 13 -33 28 -16 45 6 6 13 35 15 64 3 29 14 68 25 87 l19 33
-22 -1 c-12 0 -16 -3 -10 -6 10 -3 9 -11 -2 -32 -7 -15 -17 -51 -21 -79 -3
-29 -13 -57 -20 -63 -18 -15 -69 3 -98 33 -12 13 -35 32 -50 43 -23 17 -27 25
-21 48 9 33 52 49 70 24 13 -18 29 -10 33 18 3 16 1 18 -9 8 -15 -15 -33 -17
-24 -4 10 17 -15 23 -31 7 -22 -22 -37 -20 -29 4 10 31 -4 43 -23 20 -11 -14
-23 -19 -35 -15 -9 4 -14 11 -11 16 3 5 -2 6 -12 2 -15 -5 -15 -7 0 -15 9 -5
14 -13 11 -19 -4 -5 -1 -9 4 -9 6 0 11 -7 11 -15 0 -8 5 -15 12 -15 6 0 8 -3
5 -7 -10 -9 -48 29 -43 43 3 7 -2 15 -10 18 -8 3 -14 13 -14 21 0 10 5 13 13
9 7 -5 7 -1 -3 12 -8 10 -15 21 -17 23 -5 8 -29 -25 -27 -37 1 -7 0 -8 -3 -2
-2 5 -10 10 -18 10 -7 0 -18 7 -25 15 -14 17 -55 21 -45 4z m209 -64 c-4 -8
-11 -15 -16 -15 -6 0 -5 6 2 15 7 8 14 15 16 15 2 0 1 -7 -2 -15z m-607 -1
c-3 -3 -12 -4 -19 -1 -8 3 -5 6 6 6 11 1 17 -2 13 -5z m35 -21 c9 -35 -1 -44
-33 -28 -17 9 -29 11 -29 5 0 -5 7 -10 15 -10 8 0 15 -4 15 -10 0 -5 -4 -10
-9 -10 -6 0 -13 5 -16 10 -7 12 -25 13 -25 3 0 -5 11 -13 25 -20 14 -6 25 -7
25 -2 0 20 21 8 31 -17 12 -34 4 -42 -21 -19 -11 10 -20 13 -20 7 0 -7 4 -12
9 -12 4 0 8 -10 8 -22 0 -13 1 -36 2 -53 l2 -30 18 23 c12 13 25 20 35 16 9
-3 16 -2 16 4 0 5 -12 9 -27 8 -19 -1 -29 5 -31 17 -2 12 3 17 18 17 13 0 19
-4 14 -12 -5 -7 -3 -8 5 -3 12 7 38 -19 39 -39 0 -5 6 -12 12 -16 8 -5 4 -9
-9 -13 -12 -3 -19 -1 -16 3 3 5 1 12 -5 15 -6 4 -9 1 -8 -7 5 -23 -59 -18 -80
6 -27 30 -62 94 -62 113 0 26 43 82 65 86 11 2 23 5 26 6 4 0 9 -7 11 -16z
m468 7 c0 -5 -2 -10 -4 -10 -3 0 -8 5 -11 10 -3 6 -1 10 4 10 6 0 11 -4 11
-10z m-567 -6 c3 -3 3 -12 0 -20 -6 -17 -39 -19 -49 -3 -11 18 33 39 49 23z
m307 -34 c0 -5 -5 -10 -11 -10 -5 0 -7 5 -4 10 3 6 8 10 11 10 2 0 4 -4 4 -10z
m35 -19 c-8 -25 -27 -28 -23 -3 3 17 19 34 26 27 2 -2 1 -13 -3 -24z m234 -1
c6 -20 7 -30 0 -30 -6 0 -7 -5 -3 -11 4 -8 9 -7 16 2 8 11 9 11 5 -1 -2 -8
-12 -14 -21 -14 -13 2 -14 -1 -5 -12 9 -11 15 -11 25 -3 7 6 18 8 24 4 6 -4 2
8 -10 27 -11 18 -20 36 -20 40 0 13 34 -4 72 -36 20 -17 47 -38 60 -47 l23
-17 -20 -23 c-29 -33 -30 -69 -3 -99 23 -25 33 -60 17 -60 -8 0 -13 15 -10 33
0 4 -4 7 -9 7 -5 0 -10 -4 -10 -10 0 -18 -20 -11 -21 8 0 11 -2 12 -6 4 -3 -7
0 -18 5 -25 7 -8 7 -18 2 -27 -5 -8 -4 -22 2 -34 10 -19 9 -19 -11 2 -22 22
-48 31 -36 12 3 -5 -1 -10 -9 -10 -10 0 -13 6 -10 15 4 8 1 15 -5 15 -6 0 -11
-4 -11 -10 0 -16 -27 -12 -34 5 -9 25 10 101 34 134 32 46 18 49 -16 4 -18
-24 -31 -55 -34 -83 -6 -52 -18 -57 -40 -16 -8 16 -25 39 -38 50 -13 12 -25
32 -27 46 -3 14 -8 40 -11 58 -7 36 10 45 21 11 4 -11 9 -18 12 -15 3 3 -1 16
-10 30 -14 21 -14 26 -2 36 8 7 13 16 10 20 -3 4 2 11 11 14 8 3 13 2 10 -3
-4 -5 5 -4 18 2 14 7 24 14 24 17 -2 33 28 25 41 -10z m-593 -25 c19 -45 18
-49 -7 -31 -22 15 -61 64 -41 52 6 -3 13 -2 17 4 10 16 15 12 31 -25z m-260 0
c1 -7 -4 -16 -12 -19 -16 -6 -19 10 -4 19 6 4 7 12 4 18 -4 7 -3 8 1 4 5 -4
10 -14 11 -22z m64 -23 c-5 -2 -12 -3 -16 -2 -4 1 -10 -4 -14 -10 -5 -8 -9 -5
-12 8 -4 14 -2 19 7 16 7 -3 16 0 20 6 6 9 10 9 16 -1 5 -8 4 -15 -1 -17z
m1387 3 c1 0 -6 -6 -16 -12 -16 -10 -18 -8 -18 13 0 21 2 23 16 12 9 -7 17
-13 18 -13z m-81 -10 c-3 -9 0 -24 6 -35 10 -15 9 -23 -6 -39 -10 -11 -23 -18
-27 -15 -13 8 -11 78 3 92 17 17 31 15 24 -3z m98 -19 c-3 -9 -16 -16 -28 -15
-11 0 -15 3 -8 6 6 2 9 10 5 16 -4 6 0 8 10 4 10 -4 17 -1 17 5 0 6 2 9 5 6 3
-3 3 -13 -1 -22z m-788 2 c4 -6 3 -8 -4 -5 -12 8 -42 -1 -42 -13 0 -4 11 -5
25 -2 35 6 44 -22 14 -46 -14 -12 -18 -21 -11 -25 6 -4 17 -1 25 7 16 16 27
11 27 -12 0 -8 -6 -12 -15 -8 -8 3 -15 1 -15 -4 0 -6 6 -10 13 -10 21 0 78
-61 75 -79 -2 -9 -12 -15 -22 -14 -11 0 -15 -4 -12 -13 10 -25 -3 -15 -18 15
-9 16 -29 43 -46 60 -17 17 -29 35 -25 41 3 5 1 10 -5 10 -6 0 -9 4 -6 9 4 5
1 11 -6 13 -22 8 -17 62 6 75 27 16 33 16 42 1z m644 -28 c0 -16 -2 -30 -5
-30 -9 0 -26 41 -20 50 12 20 25 9 25 -20z m-1385 11 c3 -5 1 -13 -5 -16 -14
-9 -70 4 -70 16 0 12 67 12 75 0z m72 2 c-4 -3 0 -14 9 -24 16 -17 15 -18 -10
-6 -29 13 -35 37 -9 37 9 0 13 -3 10 -7z m-13 -38 c23 -17 13 -34 -11 -19 -19
12 -29 34 -16 34 4 0 17 -7 27 -15z m98 -17 c-9 -9 -12 -9 -12 1 0 7 -5 9 -12
5 -9 -5 -8 -2 1 10 10 12 17 14 25 6 7 -7 6 -14 -2 -22z m1032 -5 c14 -10 23
-24 21 -31 -3 -7 0 -23 6 -34 9 -16 7 -24 -5 -36 -14 -14 -17 -14 -35 7 -13
14 -27 21 -36 17 -10 -3 -14 -2 -10 5 4 6 1 9 -6 8 -16 -4 -59 22 -59 34 0 5
9 22 20 37 18 25 24 27 50 20 16 -5 40 -17 54 -27z m170 22 c4 -11 -2 -15 -22
-15 -26 1 -26 1 -8 15 24 18 23 18 30 0z m-1374 -6 c0 -5 -7 -6 -15 -3 -8 4
-15 2 -15 -4 0 -12 18 -11 39 2 11 7 13 5 8 -6 -3 -9 3 -24 14 -34 15 -13 16
-19 7 -26 -10 -6 -9 -8 4 -8 17 0 38 -46 31 -67 -6 -18 -23 -16 -66 6 -22 11
-37 15 -34 8 2 -7 21 -18 42 -25 50 -17 50 -16 35 -52 -8 -20 -18 -29 -27 -26
-8 4 -21 6 -30 6 -9 0 -14 8 -13 23 4 38 1 45 -20 52 -26 8 -25 29 3 48 21 14
21 16 5 33 -17 17 -17 17 -13 -4 2 -12 1 -22 -3 -22 -20 1 -28 20 -28 61 l0
46 38 0 c21 0 38 -3 38 -8z m-88 -23 c6 -29 -6 -54 -16 -37 -4 6 -12 9 -17 6
-13 -9 -11 29 3 43 18 18 25 15 30 -12z m158 -32 c0 -3 -7 -1 -15 6 -8 7 -15
17 -15 22 0 5 7 3 15 -6 8 -8 15 -18 15 -22z m1260 11 c0 -8 -4 -15 -9 -15 -6
0 -6 -12 0 -32 5 -18 9 -33 9 -34 0 0 -16 -18 -35 -40 -29 -32 -35 -35 -35
-19 0 17 -2 18 -10 5 -12 -17 -3 35 10 59 5 8 4 26 -1 39 -6 14 -5 21 1 17 5
-3 15 3 22 15 15 23 48 27 48 5z m30 -1 c0 -8 5 -12 10 -9 14 9 12 -7 -4 -28
-12 -16 -14 -16 -20 -2 -3 9 -2 13 4 10 6 -3 10 -2 10 4 0 5 -4 13 -10 16 -5
3 -10 10 -10 16 0 5 5 9 10 9 6 0 10 -7 10 -16z m-1090 -6 c0 -7 3 -22 6 -33
4 -16 0 -20 -20 -21 -15 -1 -26 2 -26 7 0 5 -7 9 -15 9 -11 0 -13 -4 -6 -17
21 -40 40 -103 31 -103 -6 0 -10 7 -10 16 0 8 -4 13 -10 9 -5 -3 -18 3 -28 13
-26 26 -28 119 -3 125 36 10 81 7 81 -5z m193 -2 c6 -15 18 -15 50 -1 11 4 23
3 30 -4 8 -8 8 -11 -2 -11 -7 0 -9 -5 -6 -10 4 -6 4 -18 1 -26 -8 -20 -46 0
-46 24 0 13 -2 14 -9 4 -6 -10 -12 -7 -25 12 -9 14 -12 26 -7 26 5 0 11 -6 14
-14z m-150 -10 c-6 -24 -11 -29 -21 -22 -18 11 -14 35 6 32 9 -2 16 -6 15 -10z
m-175 -17 c2 -10 -6 -19 -18 -22 -16 -4 -20 0 -20 20 0 18 5 24 17 21 10 -2
19 -10 21 -19z m248 -28 c10 -13 11 -21 4 -21 -6 0 -9 -4 -6 -9 4 -5 0 -12 -6
-14 -12 -5 16 -11 35 -8 9 1 9 -3 1 -24 -5 -13 -8 -14 -15 -3 -7 10 -9 8 -10
-7 -1 -11 -1 -24 0 -29 1 -4 -2 -13 -7 -20 -7 -9 -9 -70 -2 -86 11 -30 6 -40
-21 -40 -32 0 -34 3 -18 31 7 15 7 24 0 33 -6 8 -8 22 -4 31 5 14 3 16 -8 10
-12 -8 -12 -6 0 8 7 9 20 17 28 17 8 0 11 5 8 10 -5 8 -11 7 -21 -1 -11 -9
-14 -8 -14 6 0 14 -3 15 -14 6 -12 -10 -14 -9 -11 6 2 10 4 22 4 27 1 4 8 5
17 2 8 -3 12 -2 9 4 -3 6 1 10 10 10 9 0 13 5 10 10 -5 8 -11 7 -21 -1 -7 -6
-20 -9 -29 -6 -8 4 -17 2 -20 -3 -3 -4 1 -11 7 -13 8 -3 6 -6 -4 -6 -12 -1
-18 6 -18 20 0 11 -4 17 -10 14 -5 -3 -10 -1 -10 5 0 7 9 9 23 5 20 -6 21 -5
4 8 -16 14 -16 15 5 22 13 4 30 7 38 6 10 0 11 1 3 5 -10 4 -10 11 -2 25 9 17
12 18 30 5 12 -8 27 -24 35 -35z m272 17 c7 -7 12 -20 12 -30 0 -10 5 -18 10
-18 6 0 10 -4 10 -9 0 -15 -53 -2 -67 15 -7 10 -13 12 -18 5 -3 -6 1 -14 10
-17 12 -5 13 -9 4 -20 -20 -24 -30 -15 -26 24 2 27 8 37 20 36 9 -1 16 1 15 5
-3 24 11 28 30 9z m83 -17 c29 -29 37 -51 20 -51 -6 0 -12 4 -16 10 -3 5 -12
7 -19 4 -15 -6 -59 44 -50 57 10 17 36 9 65 -20z m934 9 c3 -4 -6 -10 -20 -12
-13 -3 -22 -1 -19 3 3 5 0 9 -5 9 -6 0 -11 4 -11 9 0 10 48 2 55 -9z m-157 -7
c2 -7 -1 -13 -8 -13 -6 0 -9 4 -6 8 3 5 -1 9 -8 9 -15 0 -11 -22 8 -45 7 -10
5 -17 -8 -24 -9 -5 -29 -23 -43 -39 -15 -16 -31 -28 -37 -27 -6 1 -22 -4 -35
-11 -13 -7 -34 -11 -47 -8 -13 2 -24 0 -24 -6 0 -6 -3 -8 -6 -5 -3 4 -1 15 5
26 8 15 19 19 46 17 27 -1 33 1 24 11 -7 9 -4 16 13 28 14 10 17 16 8 16 -9 0
-5 7 10 17 14 10 28 17 33 15 4 -1 7 5 7 13 0 29 58 45 68 18z m66 1 c18 -7
21 -32 5 -54 -9 -13 -10 -12 -5 2 4 14 0 17 -24 14 -34 -4 -36 0 -13 26 18 21
16 20 37 12z m136 -15 c0 -4 7 -6 15 -3 10 4 15 0 15 -11 0 -11 -5 -15 -15
-11 -12 4 -14 2 -6 -11 5 -10 5 -26 0 -40 -8 -23 4 -34 14 -13 3 6 4 5 3 -2
-4 -22 -54 -19 -71 5 -8 12 -15 19 -16 17 0 -3 -2 -16 -5 -30 -3 -19 -2 -21 6
-10 9 13 14 7 11 -12 -1 -7 14 -12 31 -9 10 1 -19 -51 -34 -60 -20 -13 -28
-11 -28 10 0 10 -11 26 -25 35 -14 9 -25 23 -25 31 0 19 -41 15 -57 -5 -11
-13 -12 -13 -13 1 0 23 22 39 47 35 14 -3 37 12 74 48 48 47 79 61 79 35z
m-584 -12 c22 8 17 -25 -5 -37 -22 -11 -31 -3 -26 26 5 29 6 30 11 17 3 -7 12
-9 20 -6z m-560 -31 c-1 -37 -20 -39 -30 -4 -6 25 0 38 18 38 8 0 12 -13 12
-34z m485 11 c-10 -9 -11 -8 -5 6 3 10 9 15 12 12 3 -3 0 -11 -7 -18z m722 17
c9 -9 -12 -46 -23 -39 -4 3 -6 14 -3 25 5 20 15 25 26 14z m-1930 -33 c-9 -11
-20 -18 -25 -15 -14 9 -9 22 10 27 31 8 32 7 15 -12z m307 10 c0 -5 -9 -7 -20
-4 -11 3 -20 7 -20 9 0 2 9 4 20 4 11 0 20 -4 20 -9z m310 -1 c0 -5 0 -13 0
-17 0 -12 -24 -10 -32 1 -4 6 -2 14 5 18 17 11 27 10 27 -2z m611 -9 c-9 -6
-10 -11 -2 -15 6 -4 15 -5 20 -1 5 3 12 1 16 -5 4 -6 11 -8 16 -5 5 4 9 2 9
-3 0 -26 -66 -29 -79 -4 -10 20 2 42 24 42 5 0 4 -4 -4 -9z m-1271 -13 c0 -6
-3 -8 -7 -5 -3 4 -12 2 -20 -4 -10 -9 -10 -15 -2 -25 9 -11 7 -15 -5 -20 -9
-4 -19 -4 -23 -1 -11 11 7 56 25 60 29 8 32 7 32 -5z m356 -3 c15 -11 16 -14
3 -15 -8 0 -24 7 -35 15 -15 11 -16 14 -3 15 8 0 24 -7 35 -15z m474 6 c0 -12
-20 -25 -27 -18 -7 7 6 27 18 27 5 0 9 -4 9 -9z m93 -17 c18 -25 18 -26 0 -39
-17 -14 -17 -14 4 -15 12 0 23 5 25 11 2 7 17 0 36 -16 34 -29 41 -45 18 -45
-8 0 -17 -7 -20 -16 -6 -15 -10 -14 -33 7 -15 13 -21 16 -14 6 17 -22 8 -33
-9 -11 -10 11 -11 20 -3 32 8 14 6 17 -13 17 -13 0 -24 -3 -24 -7 0 -5 5 -8
12 -8 6 0 9 -2 6 -5 -3 -3 -17 0 -32 6 -19 9 -26 20 -26 41 0 25 9 33 33 29 5
-1 6 3 2 9 -3 6 -11 8 -16 5 -5 -3 -6 1 -3 9 9 24 37 19 57 -10z m43 5 c0 -19
-32 -14 -40 6 -3 8 3 12 18 11 13 0 22 -8 22 -17z m432 -7 c4 -25 -13 -30 -22
-6 -9 25 -7 36 7 32 6 -3 13 -14 15 -26z m-1118 8 c0 -5 -4 -10 -10 -10 -5 0
-10 5 -10 10 0 6 5 10 10 10 6 0 10 -4 10 -10z m790 -1 c0 -5 5 -7 12 -3 7 5
8 3 4 -5 -5 -7 -10 -10 -13 -7 -3 3 -13 1 -23 -4 -22 -12 -33 -2 -17 16 14 16
37 18 37 3z m294 -29 c-6 -5 -24 21 -24 34 0 6 6 1 14 -10 8 -10 12 -21 10
-24z m186 20 c0 -5 -5 -10 -11 -10 -5 0 -7 5 -4 10 3 6 8 10 11 10 2 0 4 -4 4
-10z m-1214 -9 c5 -6 22 -11 37 -13 32 -5 48 -24 39 -46 -3 -9 -1 -13 5 -9 5
3 19 -3 31 -13 12 -11 26 -20 32 -20 5 0 10 -3 11 -7 0 -5 2 -16 4 -25 4 -20
-26 -32 -59 -24 -25 6 -93 57 -112 84 -20 29 -28 82 -12 82 8 0 18 -4 24 -9z
m1363 -23 c-5 -18 -9 -35 -9 -37 0 -2 11 4 25 13 35 23 54 20 65 -10 6 -14 14
-23 19 -20 14 9 20 -16 9 -37 -12 -24 0 -82 23 -103 25 -22 27 -79 2 -70 -14
6 -14 3 3 -15 10 -12 13 -19 7 -15 -8 4 -13 2 -13 -5 0 -8 -5 -7 -17 2 -9 8
-14 9 -10 3 7 -12 -30 -27 -44 -18 -5 3 -7 19 -5 37 3 27 2 29 -9 14 -19 -26
-27 -21 -62 33 -17 28 -28 48 -22 45 5 -4 9 -1 9 4 0 6 -5 11 -11 11 -5 0 -7
5 -4 11 4 6 14 8 24 4 12 -4 13 -3 5 5 -6 6 -20 12 -32 13 -16 1 -18 4 -10 14
12 15 52 18 43 3 -3 -6 1 -7 10 -3 12 4 13 8 5 13 -9 6 -9 13 -1 28 7 13 8 23
1 27 -5 3 -12 -6 -16 -20 -7 -29 -12 -31 -29 -9 -10 14 -15 14 -33 3 -19 -12
-23 -11 -36 6 -9 11 -16 15 -16 8 0 -6 5 -15 10 -18 6 -3 10 -13 10 -22 0 -12
-7 -9 -25 11 -13 14 -32 26 -41 26 -32 0 -4 14 29 15 19 0 45 8 60 18 14 9 30
17 36 17 5 0 12 7 15 16 3 8 10 13 15 10 5 -3 11 1 15 9 10 28 15 15 5 -17z
m-1872 -15 c3 -9 1 -24 -5 -34 -17 -27 -15 -39 9 -39 11 0 18 -4 15 -9 -4 -5
-1 -11 5 -13 7 -2 -2 -18 -20 -35 -21 -21 -37 -30 -48 -26 -12 5 -14 3 -8 -8
6 -11 5 -12 -6 -1 -7 6 -20 12 -28 12 -14 0 -14 -1 -1 -10 8 -5 11 -10 5 -10
-27 0 -35 16 -19 38 18 26 34 28 35 5 0 -16 1 -16 8 1 4 11 16 23 27 28 14 6
13 7 -8 3 -24 -5 -26 -3 -22 22 3 16 16 38 31 50 22 18 23 21 7 20 -13 -1 -20
5 -22 21 -3 21 -1 22 18 12 12 -6 24 -18 27 -27z m253 27 c0 -5 7 -10 15 -10
9 0 30 -7 46 -16 25 -13 30 -20 27 -46 -3 -27 0 -31 26 -34 39 -4 47 -15 40
-52 -7 -32 -18 -41 -29 -22 -3 6 -15 10 -25 10 -10 0 -20 6 -23 13 -2 7 -8 8
-13 3 -5 -5 -4 -11 3 -13 9 -3 11 -14 7 -30 -5 -18 -3 -24 5 -19 6 4 11 0 11
-10 0 -10 3 -15 6 -11 3 3 16 2 29 -3 17 -6 25 -5 28 4 4 10 -1 12 -14 9 -10
-3 -19 0 -19 6 0 6 -6 11 -14 11 -22 0 -30 19 -11 27 10 3 21 0 25 -7 5 -8 21
-15 37 -17 15 -2 33 -11 40 -19 6 -9 18 -14 25 -11 7 2 24 0 37 -5 15 -5 28
-4 37 3 11 9 18 6 33 -12 13 -16 15 -26 8 -31 -11 -7 -37 0 -37 11 0 3 -20 5
-45 3 -33 -3 -45 0 -46 9 0 8 -5 3 -10 -10 -9 -23 -10 -23 -29 -6 -24 21 -27
14 -4 -9 11 -11 12 -21 5 -33 -8 -16 -11 -15 -21 9 -7 14 -22 30 -35 36 -25
12 -68 66 -59 75 3 3 3 11 -1 16 -4 8 -11 6 -21 -4 -19 -19 -28 -19 -43 -1 -9
11 -8 15 5 20 9 3 19 4 24 1 4 -3 6 4 3 14 -5 18 -7 17 -34 -10 l-29 -30 -27
27 c-21 21 -23 28 -12 36 11 8 10 9 -3 4 -10 -3 -18 -1 -18 4 0 6 -7 10 -15
10 -8 0 -15 -5 -15 -11 0 -5 4 -8 9 -5 4 3 22 -12 39 -33 35 -44 29 -61 -25
-61 -23 0 -33 -5 -33 -15 0 -9 -9 -15 -22 -14 -22 0 -22 1 -3 9 16 7 14 9 -15
9 -26 1 -31 4 -20 11 8 5 10 10 4 10 -5 0 -15 -5 -20 -10 -8 -8 -15 -6 -23 4
-10 12 -8 16 9 21 11 3 18 10 15 15 -3 5 3 18 15 30 11 11 20 24 20 30 0 14
34 30 67 31 23 2 24 2 5 6 -12 2 -27 13 -32 24 -10 17 -8 19 22 17 26 -3 35 2
45 22 8 18 21 26 43 28 16 1 30 -2 30 -8z m200 -4 c0 -20 -13 -27 -30 -15 -13
8 -13 10 0 19 21 14 30 12 30 -4z m510 8 c0 -8 -19 -13 -24 -6 -3 5 1 9 9 9 8
0 15 -2 15 -3z m50 -9 c0 -8 -2 -15 -4 -15 -2 0 -6 7 -10 15 -3 8 -1 15 4 15
6 0 10 -7 10 -15z m384 2 c24 -17 13 -57 -15 -57 -11 0 -17 -4 -14 -10 3 -5
-4 -10 -15 -10 -15 0 -20 5 -17 14 3 8 0 20 -8 26 -8 6 -11 18 -8 27 5 12 7
12 14 1 7 -10 9 -9 9 5 0 20 29 23 54 4z m-597 -19 c-3 -8 -6 -5 -6 6 -1 11 2
17 5 13 3 -3 4 -12 1 -19z m79 0 c-9 -15 -11 -30 -6 -43 7 -17 9 -17 9 -2 1 9
6 17 12 17 6 0 9 -10 7 -22 -2 -16 -10 -23 -30 -25 -24 -1 -26 1 -19 20 4 12
7 29 6 37 -1 17 13 40 26 40 5 0 3 -10 -5 -22z m348 -8 c-12 -19 -21 -25 -25
-18 -10 16 0 36 19 41 10 3 18 5 20 6 2 0 -5 -12 -14 -29z m82 18 c4 -6 3 -8
-4 -4 -6 3 -13 2 -16 -3 -3 -5 2 -11 13 -14 14 -3 17 -11 13 -37 -4 -25 -2
-31 8 -25 9 5 11 4 6 -4 -5 -7 -20 -10 -37 -7 -16 2 -32 0 -35 -6 -4 -6 -9 -5
-14 3 -5 8 1 25 17 46 14 18 22 33 18 33 -4 0 -2 7 5 15 15 18 17 18 26 3z
m-676 -24 c0 -8 -4 -14 -10 -14 -5 0 -10 2 -10 4 0 2 -3 12 -6 20 -5 12 -2 15
10 10 9 -3 16 -12 16 -20z m173 -59 c-7 -56 -17 -62 -37 -22 -18 39 -22 92 -6
82 6 -3 10 1 10 11 0 13 4 11 19 -7 14 -17 17 -33 14 -64z m193 57 c-9 -9 -37
8 -31 18 5 8 11 7 21 -1 8 -6 12 -14 10 -17z m466 17 c15 9 19 9 11 1 -6 -7
-10 -18 -9 -24 2 -6 1 -8 -1 -3 -3 4 -13 7 -24 7 -11 0 -19 7 -19 18 0 14 2
15 10 2 8 -13 13 -13 32 -1z m86 -26 c-6 -7 -18 -13 -27 -12 -10 0 -12 2 -3 6
6 2 10 8 8 12 -3 4 4 7 14 7 14 0 16 -3 8 -13z m569 2 c0 -8 -4 -12 -9 -9 -4
3 -8 9 -8 15 0 5 4 9 8 9 5 0 9 -7 9 -15z m-2027 -18 c0 -28 -38 -55 -51 -35
-14 22 -10 46 9 51 35 9 42 7 42 -16z m402 -19 c52 -57 50 -79 -4 -37 -67 51
-85 79 -51 79 9 0 33 -19 55 -42z m1691 -54 c0 -27 5 -52 9 -55 12 -8 -58 -83
-71 -75 -5 4 -15 -3 -21 -14 -10 -18 -12 -19 -34 -5 -25 17 -33 64 -12 77 8 6
7 8 -2 8 -7 0 -10 5 -7 10 3 6 11 10 16 10 6 0 8 -4 5 -8 -2 -4 -1 -14 5 -22
6 -10 9 -11 9 -2 0 6 6 12 14 12 7 0 20 8 27 18 11 14 11 15 -1 5 -29 -26 -37
-13 -20 31 8 22 12 24 40 16 18 -5 30 -5 30 1 0 5 -6 9 -14 9 -22 0 -37 26
-30 54 l6 25 25 -23 c19 -18 24 -33 26 -72z m144 57 c14 -20 6 -34 -15 -26 -9
3 -13 3 -10 -1 4 -3 2 -12 -5 -18 -20 -20 -44 -25 -56 -13 -10 9 -16 7 -27 -7
-13 -19 -14 -19 -14 7 0 17 5 27 15 27 8 0 19 9 25 20 6 11 15 18 21 15 5 -4
9 -3 8 2 -3 20 2 24 23 17 13 -4 28 -14 35 -23z m-1409 -26 c-13 -12 -24 -22
-25 -21 -2 1 3 16 9 34 10 24 15 29 26 20 11 -9 9 -15 -10 -33z m86 20 c3 -9
0 -12 -9 -9 -7 3 -16 12 -19 19 -3 9 0 12 9 9 7 -3 16 -12 19 -19z m37 2 c-1
-12 -15 -9 -19 4 -3 6 1 10 8 8 6 -3 11 -8 11 -12z m397 -15 c23 -23 9 -86
-18 -79 -11 3 -17 -1 -16 -12 1 -20 -34 -21 -44 -1 -34 68 -34 70 -16 88 16
16 19 16 42 -11 13 -16 21 -33 18 -39 -4 -7 -2 -8 5 -4 7 5 8 13 2 23 -8 14
-4 53 5 53 2 0 12 -8 22 -18z m238 3 c12 -8 24 -12 26 -9 3 2 11 -3 19 -12 17
-20 20 -68 4 -54 -6 5 -10 -1 -11 -18 -1 -15 1 -21 3 -14 3 6 11 12 19 12 8 0
14 8 14 18 0 12 11 6 38 -23 48 -50 64 -78 56 -102 -5 -14 -4 -15 4 -4 8 11
16 8 43 -19 19 -18 28 -29 22 -26 -7 4 -13 3 -13 -3 0 -5 5 -11 12 -13 15 -5
-30 -47 -60 -55 -30 -7 -39 3 -24 27 13 22 3 27 -16 8 -7 -7 -12 -8 -12 -4 0
5 -6 3 -14 -3 -23 -19 -54 3 -62 43 -6 37 0 56 19 56 17 0 39 37 27 45 -6 3
-10 -1 -10 -9 0 -17 -36 -40 -43 -28 -2 4 -3 2 -1 -5 4 -17 -8 -24 -22 -12 -7
6 -11 16 -8 23 3 8 -4 15 -19 18 -23 4 -24 3 -17 -23 5 -17 4 -32 -3 -40 -10
-12 -9 -12 3 -1 16 13 46 16 53 5 2 -5 7 -19 10 -33 6 -25 5 -25 -51 -25 -31
-1 -49 1 -39 3 9 2 17 8 17 13 0 6 -7 6 -19 -1 -14 -7 -21 -6 -24 3 -3 6 -6 8
-6 2 0 -5 9 -21 20 -35 11 -14 18 -19 14 -12 -3 6 -1 12 4 12 6 0 11 -5 11
-12 0 -6 6 -4 13 7 10 13 16 15 21 6 4 -6 12 -9 17 -5 5 3 24 2 41 -1 27 -6
29 -9 14 -17 -12 -7 -22 -5 -33 4 -10 7 -14 8 -10 1 4 -6 4 -13 0 -16 -5 -2
-2 -2 4 -1 7 2 22 -6 33 -18 14 -16 23 -18 33 -10 10 9 13 4 15 -20 3 -40 12
-50 12 -14 0 16 4 25 10 21 6 -4 8 -11 5 -16 -4 -5 -1 -9 6 -9 8 0 8 -4 1 -13
-8 -10 -6 -13 7 -13 10 0 17 5 14 12 -4 11 31 26 41 17 7 -7 -15 -66 -36 -93
-11 -14 -32 -28 -46 -31 l-27 -7 28 -1 c15 0 27 -6 27 -12 0 -5 -4 -8 -9 -5
-5 3 -14 -8 -20 -26 -8 -23 -14 -29 -22 -21 -8 8 -7 17 1 33 8 15 8 20 1 16
-6 -4 -11 -1 -11 8 0 8 5 18 11 22 8 4 8 9 0 17 -16 16 -24 2 -25 -40 -1 -35
-4 -38 -31 -41 -27 -2 -28 -1 -13 11 16 13 16 15 -2 45 -11 18 -28 32 -37 31
-15 0 -14 -2 4 -9 19 -8 41 -46 31 -55 -13 -14 -64 -12 -80 2 -22 19 -24 41
-3 23 8 -7 15 -9 15 -4 0 5 5 2 10 -6 7 -12 12 -12 22 -2 9 9 9 12 -5 12 -9 0
-17 7 -17 15 0 8 -8 15 -17 15 -26 0 -43 14 -48 37 -3 20 19 40 28 25 2 -4 3
-2 1 4 -1 6 3 17 9 23 8 8 8 11 0 11 -7 0 -15 -4 -18 -10 -3 -5 -11 -10 -17
-10 -6 0 -3 10 8 22 14 17 15 19 2 10 -14 -11 -19 -10 -33 12 -20 30 -32 121
-14 111 8 -5 9 -1 5 13 -4 12 -2 23 5 28 7 4 9 3 6 -3 -4 -6 0 -13 8 -17 20
-7 20 18 0 34 -15 13 -20 42 -9 53 8 8 34 -3 34 -15 0 -5 -4 -7 -9 -4 -4 3 -6
-6 -3 -19 2 -14 9 -25 14 -25 6 0 7 7 4 16 -3 8 -2 12 4 9 16 -10 -1 28 -23
53 -14 15 -16 22 -7 22 9 0 8 4 -4 13 -17 12 -17 15 -2 29 9 9 16 20 16 25 0
10 48 63 58 63 4 0 17 -7 28 -15z m414 1 c0 -3 -4 -8 -10 -11 -5 -3 -10 -1
-10 4 0 6 5 11 10 11 6 0 10 -2 10 -4z m-1232 -26 c-7 -11 -15 -15 -17 -9 -2
6 3 15 10 20 20 12 21 11 7 -11z m314 -6 c-3 -17 -9 -23 -19 -20 -8 3 -17 6
-19 6 -2 0 -4 7 -4 16 0 8 4 13 9 9 5 -3 12 -1 16 5 12 19 22 10 17 -16z m632
11 c-4 -8 -12 -15 -20 -15 -17 0 -18 17 -1 23 22 9 27 7 21 -8z m-851 -10 c0
-6 -8 -11 -19 -12 -10 -2 -13 0 -6 3 6 3 9 10 6 16 -4 6 -1 9 5 7 7 -3 13 -9
14 -14z m97 5 c0 -5 -2 -10 -4 -10 -3 0 -8 5 -11 10 -3 6 -1 10 4 10 6 0 11
-4 11 -10z m1008 4 l24 -5 -26 -24 c-14 -13 -26 -31 -26 -40 0 -23 -22 -14
-36 14 -24 48 -1 67 64 55z m-1583 -36 c5 4 4 1 0 -7 -6 -11 -4 -13 10 -7 16
6 16 4 4 -10 -12 -15 -12 -16 8 -10 16 5 25 1 37 -15 8 -12 12 -27 9 -33 -4
-6 -8 -4 -11 4 -5 16 -22 30 -36 30 -6 0 -2 -6 8 -13 16 -12 15 -13 -14 -11
-40 3 -70 30 -69 63 0 14 3 20 6 13 2 -6 9 -9 14 -6 6 3 6 11 2 18 -4 7 -1 4
8 -6 9 -9 20 -14 24 -10z m405 16 c0 -8 -5 -12 -10 -9 -6 4 -8 11 -5 16 9 14
15 11 15 -7z m431 -4 c3 -39 5 -45 16 -43 6 1 19 -7 28 -17 10 -11 13 -20 7
-20 -6 0 -13 6 -15 13 -4 8 -6 7 -6 -3 -2 -26 -56 -23 -71 4 -15 30 -9 61 12
60 10 -1 14 4 11 12 -3 8 0 14 6 14 6 0 12 -9 12 -20z m1029 10 c0 -5 -2 -10
-4 -10 -3 0 -8 5 -11 10 -3 6 -1 10 4 10 6 0 11 -4 11 -10z m-1241 -26 c1 6 8
1 17 -10 8 -10 13 -14 10 -9 -2 6 3 11 12 11 12 0 18 -10 20 -37 1 -21 -2 -40
-8 -44 -5 -3 -10 0 -10 7 0 9 -3 9 -10 -2 -15 -22 -12 -32 8 -28 22 4 54 -35
46 -56 -10 -27 -33 -18 -48 19 -8 19 -19 35 -24 35 -6 0 -13 7 -16 16 -4 10
-2 13 6 8 6 -4 8 -3 4 4 -3 5 -1 12 6 14 7 3 5 7 -6 11 -9 4 -15 3 -12 -2 3
-5 -1 -11 -9 -15 -10 -4 -15 1 -15 15 0 11 -4 17 -10 14 -5 -3 -10 1 -10 10 0
9 5 13 11 9 8 -5 8 -1 0 14 -15 27 -14 30 7 34 9 2 20 -3 24 -12 4 -8 7 -11 7
-6z m-131 -13 c-3 -21 -1 -28 9 -24 21 8 15 -15 -7 -27 -15 -8 -23 -6 -40 12
-22 24 -25 34 -10 43 6 3 10 1 10 -4 0 -6 5 -11 11 -11 5 0 7 5 4 10 -8 12 2
30 17 30 6 0 8 -13 6 -29z m232 19 c0 -5 -5 -10 -11 -10 -5 0 -7 5 -4 10 3 6
8 10 11 10 2 0 4 -4 4 -10z m47 -12 c-3 -8 -6 -5 -6 6 -1 11 2 17 5 13 3 -3 4
-12 1 -19z m843 13 c0 -5 -7 -11 -14 -14 -10 -4 -13 -1 -9 9 6 15 23 19 23 5z
m166 -32 c1 -15 -4 -26 -12 -26 -7 0 -11 4 -8 9 3 4 -2 8 -10 8 -9 0 -16 5
-16 10 0 14 13 13 28 -2 9 -9 12 -9 12 0 0 6 -8 16 -17 22 -16 10 -16 10 2 8
14 -2 20 -11 21 -29z m40 14 c-3 -7 -1 -13 5 -13 6 0 7 -5 4 -10 -4 -6 -10 -8
-15 -5 -4 3 -11 -1 -13 -7 -3 -7 -6 1 -6 18 -1 21 4 31 14 31 9 0 14 -6 11
-14z m51 11 c-3 -4 -2 -16 4 -26 8 -15 8 -23 -2 -32 -9 -8 -11 -7 -6 5 3 9 1
22 -3 29 -9 14 -4 30 7 30 4 0 3 -3 0 -6z m-1716 -14 c26 0 29 -3 24 -20 -3
-10 -1 -29 5 -41 9 -16 9 -24 0 -33 -9 -8 -11 -7 -8 3 2 8 -10 21 -27 29 -30
15 -47 35 -51 60 -2 8 3 11 13 8 8 -3 28 -6 44 -6z m88 3 c-3 -21 3 -24 18
-12 9 8 14 9 10 2 -4 -6 -1 -14 5 -16 10 -4 10 -8 -2 -16 -10 -7 -19 -6 -29 2
-11 9 -10 5 2 -13 21 -30 21 -36 1 -44 -8 -3 -12 -2 -9 4 3 6 0 10 -7 10 -10
0 -10 2 -1 8 9 6 7 12 -7 22 -25 18 -26 47 -2 53 9 3 18 5 20 6 1 0 1 -2 1 -6z
m167 -13 c11 0 13 -6 9 -19 -3 -11 -1 -22 4 -26 7 -4 8 1 5 12 -4 11 6 5 25
-15 45 -47 38 -56 -21 -26 -29 15 -47 29 -40 31 6 3 12 12 12 21 -1 15 -2 15
-11 0 -5 -10 -16 -18 -24 -18 -7 0 -12 8 -10 18 2 9 4 21 4 26 1 4 8 5 17 2 9
-3 22 -6 30 -6z m634 0 c0 -5 -5 -10 -11 -10 -5 0 -7 5 -4 10 3 6 8 10 11 10
2 0 4 -4 4 -10z m-328 -25 c-2 -9 1 -14 7 -11 18 12 22 -13 5 -39 -10 -15 -12
-25 -5 -25 6 0 11 7 11 15 0 8 5 15 10 15 14 0 12 -11 -4 -33 -13 -17 -15 -17
-30 5 -19 27 -22 102 -3 95 6 -2 11 -12 9 -22z m231 -13 c-3 -12 -12 -22 -19
-22 -8 0 -23 -9 -35 -21 -20 -20 -20 -21 -1 -15 19 6 19 4 10 -36 -13 -58 -16
-72 -17 -80 -2 -14 -28 4 -41 28 -7 13 -15 22 -18 19 -3 -2 1 -11 8 -20 16
-19 8 -29 -18 -21 -24 8 -36 60 -26 111 7 37 1 36 79 20 14 -3 25 -1 25 5 0 6
-4 8 -10 5 -5 -3 -10 -1 -10 4 0 6 6 11 14 11 8 0 24 9 37 19 28 23 30 22 22
-7z m-651 -10 c-11 -12 -20 -14 -24 -8 -4 6 -1 12 7 14 8 2 15 8 15 13 0 6 4
8 10 4 5 -3 2 -13 -8 -23z m1558 13 c0 -8 -4 -15 -10 -15 -5 0 -10 -4 -10 -9
0 -4 10 -7 23 -6 19 2 22 -2 23 -29 1 -17 -1 -25 -3 -18 -3 6 -9 12 -14 12 -6
0 -7 -6 -3 -12 5 -9 3 -9 -9 1 -9 7 -14 18 -10 24 3 5 1 7 -4 4 -6 -4 -16 0
-23 8 -9 11 -9 15 -1 15 7 0 9 5 6 10 -3 6 -3 15 0 20 10 15 35 12 35 -5z
m-2329 -12 c12 -15 12 -16 -2 -11 -9 4 -21 2 -27 -4 -6 -6 -15 -7 -22 -3 -8 5
-6 11 7 21 23 18 28 17 44 -3z m1019 -9 c12 -31 12 -37 1 -30 -5 3 -14 -1 -21
-9 -7 -8 -18 -15 -24 -15 -6 0 -4 5 4 10 13 9 13 12 -2 24 -10 7 -18 16 -18
20 0 11 25 1 33 -14 4 -9 5 -3 2 13 -7 34 12 36 25 1z m1187 5 c2 -16 -1 -19
-9 -11 -5 5 -7 15 -4 21 10 15 12 14 13 -10z m54 -16 c13 -16 12 -17 -3 -4
-17 13 -22 21 -14 21 2 0 10 -8 17 -17z m-716 -20 c-2 -16 -4 -38 -4 -50 -1
-13 -5 -23 -10 -23 -9 0 -8 25 4 78 7 31 14 28 10 -5z m689 11 c3 -8 2 -12 -4
-9 -6 3 -10 10 -10 16 0 14 7 11 14 -7z m-2274 -10 c0 -2 -7 -4 -15 -4 -8 0
-15 4 -15 10 0 5 7 7 15 4 8 -4 15 -8 15 -10z m54 8 c2 -4 -4 -8 -15 -8 -10 0
-19 4 -19 8 0 4 6 8 14 8 8 0 17 -4 20 -8z m893 -11 c18 -7 30 -17 27 -22 -3
-5 2 -6 10 -3 11 4 16 0 16 -11 0 -9 -3 -14 -7 -12 -5 3 -8 -10 -9 -29 0 -24
3 -31 11 -24 7 6 16 5 23 -2 9 -9 12 -8 12 5 0 10 -7 20 -16 24 -14 5 -14 7 2
17 28 15 52 17 60 4 5 -7 2 -9 -7 -6 -8 3 -23 2 -34 -3 -19 -7 -19 -8 2 -8 17
-1 21 -6 17 -18 -5 -14 -4 -15 4 -5 14 21 47 10 50 -16 2 -12 7 -20 12 -17 4
3 14 -2 21 -11 12 -14 11 -16 -6 -12 -23 4 -45 -30 -45 -68 0 -41 -51 -30 -64
14 -4 12 -11 20 -16 17 -5 -3 -7 -12 -3 -20 4 -11 1 -13 -11 -9 -19 7 -19 9
-5 36 6 12 7 18 1 14 -13 -8 -23 19 -15 42 6 15 5 15 -10 3 -9 -7 -17 -9 -17
-3 0 5 -7 13 -16 16 -14 5 -15 4 -5 -8 8 -9 8 -16 2 -20 -5 -4 -12 -2 -16 4
-3 5 -12 10 -18 10 -7 0 -3 -6 8 -12 11 -7 21 -11 23 -10 4 3 32 -25 32 -32 0
-3 -6 -3 -14 0 -7 3 -16 -2 -20 -12 -5 -14 -10 -13 -31 12 -14 16 -28 39 -31
52 -5 18 -9 20 -21 11 -11 -10 -11 -14 -1 -22 9 -6 8 -7 -5 -3 -10 3 -25 6
-33 6 -12 0 -13 4 -2 23 7 12 11 25 10 30 -1 4 5 7 13 7 13 0 14 -4 5 -21 -15
-28 -7 -34 14 -10 15 16 15 19 1 31 -20 16 -19 27 5 57 11 14 20 21 20 14 0
-6 9 -11 20 -11 11 0 20 -6 20 -12 0 -9 3 -8 9 2 12 18 5 31 -14 23 -8 -3 -15
-1 -15 5 0 12 15 11 57 -7z m580 -22 c2 -34 -1 -40 -15 -37 -12 3 -18 -1 -18
-12 0 -9 6 -17 13 -17 7 0 9 5 6 10 -3 6 -1 7 5 3 7 -4 12 -19 11 -34 0 -22
-2 -23 -8 -9 -6 17 -8 16 -20 -5 -7 -13 -11 -28 -10 -34 5 -29 -2 -38 -15 -18
-15 21 -9 78 14 139 9 25 28 55 34 55 1 0 2 -18 3 -41z m-798 -23 c1 -5 -5 -3
-13 4 -8 6 -12 19 -9 27 6 14 8 14 14 -3 4 -10 8 -23 8 -28z m984 29 c-3 -9
-8 -14 -10 -11 -3 3 -2 9 2 15 9 16 15 13 8 -4z m-1718 -5 c-3 -5 -15 -10 -26
-10 -10 0 -19 5 -19 10 0 6 12 10 26 10 14 0 23 -4 19 -10z m65 -2 c0 -9 4 -8
10 2 5 8 10 10 10 4 0 -7 9 -14 20 -17 12 -3 20 -14 20 -27 0 -17 -4 -20 -22
-15 -36 11 -76 65 -48 65 6 0 10 -6 10 -12z m440 2 c0 -5 -5 -10 -11 -10 -5 0
-7 5 -4 10 3 6 8 10 11 10 2 0 4 -4 4 -10z m70 -19 c0 -15 -6 -28 -12 -29 -7
-1 -26 -4 -42 -8 -25 -6 -45 5 -46 26 0 11 45 9 59 -3 11 -9 13 -9 8 0 -4 6
-4 13 0 16 5 2 3 2 -4 1 -6 -2 -13 3 -16 9 -3 7 7 13 24 14 26 2 29 -1 29 -26z
m1524 14 c3 -9 0 -15 -9 -15 -8 0 -15 7 -15 15 0 8 4 15 9 15 5 0 11 -7 15
-15z m136 -7 c0 -6 -8 -4 -17 3 -16 12 -16 11 0 -8 13 -15 15 -23 6 -28 -8 -6
-7 -10 5 -17 9 -5 21 -6 27 -2 6 3 3 -5 -6 -20 -10 -14 -21 -26 -26 -26 -12 0
-11 28 1 32 5 2 -4 11 -21 20 -17 10 -27 12 -23 5 4 -6 -2 -3 -14 7 -16 14
-19 22 -11 32 19 23 79 24 79 2z m100 -8 c0 -15 -5 -12 -26 11 -19 22 -19 22
4 10 12 -6 22 -16 22 -21z m-2280 -34 c0 -14 -20 -45 -20 -31 0 5 -7 0 -15
-13 -17 -24 -59 -27 -76 -5 -14 16 -1 56 16 49 9 -3 12 0 9 9 -3 8 6 20 23 29
26 14 29 14 46 -6 9 -11 17 -25 17 -32z m608 29 c-2 -23 -28 -37 -28 -16 0 5
-3 16 -6 25 -4 12 0 16 15 16 16 0 20 -6 19 -25z m-46 -17 c-9 -9 -12 -7 -12
12 0 19 3 21 12 12 9 -9 9 -15 0 -24z m1672 13 c13 -14 14 -21 5 -27 -8 -4
-10 -3 -5 4 5 8 0 12 -13 12 -24 0 -36 16 -19 23 7 3 13 6 14 6 0 1 9 -8 18
-18z m-1134 -44 c8 -14 11 -29 6 -34 -10 -11 -38 28 -31 45 2 7 1 11 -4 8 -5
-3 -14 1 -21 9 -11 13 -9 14 11 7 13 -5 31 -21 39 -35z m146 22 c3 -6 1 -16
-5 -22 -9 -9 -10 -7 -5 7 5 13 4 17 -4 12 -7 -4 -12 -2 -12 3 0 14 17 14 26 0z
m839 1 c3 -5 1 -10 -4 -10 -6 0 -11 5 -11 10 0 6 2 10 4 10 3 0 8 -4 11 -10z
m-92 -7 c-7 -2 -19 -2 -25 0 -7 3 -2 5 12 5 14 0 19 -2 13 -5z m54 -7 c-3 -8
-1 -17 6 -20 9 -3 9 -5 0 -5 -15 -1 -26 16 -18 29 9 15 18 12 12 -4z m293 -2
c0 -8 -4 -12 -10 -9 -5 3 -10 10 -10 16 0 5 5 9 10 9 6 0 10 -7 10 -16z
m-1795 -4 c-3 -5 -2 -10 4 -10 5 0 13 5 16 10 3 6 15 10 26 10 16 0 19 -5 14
-20 -5 -16 -2 -20 17 -19 13 0 17 3 11 6 -7 2 -13 10 -13 16 0 16 23 -9 26
-28 2 -12 -3 -14 -19 -10 -13 4 -17 3 -10 -2 6 -4 13 -17 15 -28 3 -22 -20
-27 -39 -8 -18 17 -16 28 2 13 9 -7 18 -10 21 -7 3 3 -4 10 -15 17 -12 6 -21
8 -21 4 0 -3 -7 0 -17 7 -15 13 -15 12 -5 -8 15 -27 15 -45 1 -20 -16 27 -28
75 -21 81 9 10 14 7 7 -4z m1719 1 c3 -4 -4 -17 -16 -27 -12 -11 -19 -14 -16
-9 3 6 8 18 11 28 7 19 13 21 21 8z m111 0 c-3 -5 -1 -12 5 -16 5 -3 10 -15
10 -26 0 -10 3 -18 8 -18 21 4 31 -3 26 -16 -10 -26 -30 -16 -43 23 -8 20 -16
43 -18 50 -3 6 0 12 7 12 6 0 9 -4 5 -9z m-421 -8 c4 -5 12 -9 17 -9 5 -1 12
-2 16 -3 4 0 -3 -10 -15 -22 -12 -11 -27 -17 -32 -14 -6 3 -7 -1 -4 -10 4 -9
9 -14 11 -11 3 2 21 -5 41 -16 27 -15 33 -16 23 -4 -8 9 -9 16 -3 16 6 0 24
-26 41 -57 19 -35 23 -49 11 -35 -11 13 -24 21 -30 17 -5 -3 -40 10 -77 29
-36 19 -70 33 -75 30 -4 -3 -8 5 -8 16 0 13 8 24 19 27 10 2 24 16 30 29 11
25 22 30 35 17z m160 -5 c-3 -5 5 -18 18 -29 16 -14 19 -22 10 -25 -6 -3 -10
-10 -6 -15 3 -5 -1 -9 -9 -9 -8 0 -18 -7 -21 -16 -4 -12 -2 -15 9 -10 10 3 15
-1 15 -13 0 -11 -6 -21 -12 -24 -10 -3 -10 -7 1 -20 16 -20 5 -23 -14 -3 -19
18 -58 89 -46 81 12 -7 30 25 24 43 -3 6 1 12 9 12 10 0 9 3 -2 10 -11 7 -11
10 -2 10 7 0 11 4 8 8 -3 5 1 9 9 9 8 0 12 -4 9 -9z m107 -16 c-6 -11 -7 -22
-4 -26 7 -7 -26 -46 -39 -46 -5 0 -6 5 -3 10 3 6 1 10 -5 10 -11 0 25 59 44
72 16 11 19 2 7 -20z m-187 -1 c13 -14 14 -21 5 -27 -8 -4 -10 -3 -5 5 4 6 0
14 -8 17 -9 3 -16 10 -16 15 0 13 5 11 24 -10z m268 -11 c18 -11 26 -20 18
-21 -12 0 -12 -2 -1 -6 11 -5 11 -7 0 -14 -12 -8 -12 -10 0 -18 9 -6 11 -18 7
-36 -5 -19 -2 -33 10 -46 9 -10 14 -27 12 -37 -3 -12 2 -23 13 -31 11 -6 19
-16 19 -22 0 -8 -5 -7 -15 1 -18 15 -20 -1 -3 -18 9 -9 9 -12 1 -12 -7 0 -14
4 -17 9 -8 12 -55 20 -62 10 -3 -5 -14 -9 -25 -9 -11 0 -18 -4 -15 -9 3 -4 0
-16 -7 -25 -16 -22 -29 -10 -52 54 -24 66 -29 89 -16 70 16 -23 23 -6 9 22 -8
13 -19 23 -26 20 -13 -4 -15 2 -6 36 4 12 10 22 15 22 5 0 9 -10 10 -22 l0
-23 9 22 c8 20 38 43 56 43 3 0 4 -9 1 -19 -3 -15 -1 -18 11 -14 20 8 6 -16
-20 -35 -10 -7 -15 -18 -12 -24 4 -6 0 -15 -7 -20 -11 -8 -10 -9 3 -4 10 3 22
-2 27 -12 9 -14 10 -11 11 15 0 26 -3 31 -17 26 -11 -4 -14 -3 -9 5 4 7 14 12
22 12 8 0 14 5 14 11 0 5 4 8 9 4 5 -3 12 -1 16 5 3 5 2 10 -4 10 -6 0 -8 6
-5 14 3 8 -4 16 -18 20 -22 6 -22 7 -5 20 12 10 14 15 6 18 -7 2 -9 10 -5 16
9 16 10 15 48 -8z m-503 -13 c0 -9 -2 -8 -6 1 -2 6 -10 9 -15 6 -7 -4 -8 -2
-4 5 9 13 26 5 25 -12z m-559 -8 c0 -5 -7 -9 -15 -9 -15 0 -20 12 -9 23 8 8
24 -1 24 -14z m57 15 c-3 -3 -12 -4 -19 -1 -8 3 -5 6 6 6 11 1 17 -2 13 -5z
m178 -2 c6 -4 12 -24 14 -45 l3 -39 -21 21 c-25 25 -27 35 -4 27 16 -6 16 -6
0 12 -25 27 -19 44 8 24z m524 -23 c-7 -4 -18 -5 -26 -2 -10 4 -11 9 -2 19 9
11 15 12 26 3 11 -9 11 -14 2 -20z m-240 0 c-7 -4 -17 -5 -22 -2 -5 3 -3 9 4
14 7 4 17 5 22 2 5 -3 3 -9 -4 -14z m491 17 c0 -3 -4 -8 -10 -11 -5 -3 -10 -1
-10 4 0 6 5 11 10 11 6 0 10 -2 10 -4z m-2310 -16 c0 -5 -7 -7 -15 -4 -8 4
-15 8 -15 10 0 2 7 4 15 4 8 0 15 -4 15 -10z m1335 -55 c3 -30 1 -36 -12 -31
-12 5 -14 1 -10 -14 4 -17 3 -19 -9 -9 -16 13 -20 54 -4 44 6 -3 10 -2 10 3 0
6 -7 12 -15 16 -21 8 -19 34 3 39 25 5 33 -6 37 -48z m585 47 c0 -14 -11 -21
-26 -15 -21 8 -17 23 6 23 11 0 20 -4 20 -8z m-1010 -49 c0 -20 -14 -16 -39
11 -17 18 -19 25 -9 29 16 5 48 -21 48 -40z m487 5 c-8 -33 -12 -38 -17 -22
-4 10 -2 25 4 33 9 12 8 13 -4 7 -8 -4 -6 0 4 8 11 9 21 16 22 16 1 0 -3 -19
-9 -42z m-178 -4 c26 -43 26 -63 4 -80 -15 -12 -15 -13 -2 -8 23 7 34 -25 11
-33 -9 -4 -21 -13 -27 -20 -16 -19 -83 -44 -90 -33 -3 6 1 10 9 10 9 0 15 3
15 8 -6 36 22 60 34 30 3 -7 6 -3 6 9 1 12 7 24 14 26 6 3 -8 6 -33 6 -33 1
-41 4 -30 11 9 6 10 10 3 10 -19 0 5 57 34 80 14 11 27 20 28 20 2 0 12 -16
24 -36z m379 5 c-3 -8 -7 -3 -11 10 -4 17 -3 21 5 13 5 -5 8 -16 6 -23z m-737
-36 c8 2 11 2 6 0 -13 -8 3 -22 18 -16 8 3 15 1 15 -5 0 -5 -9 -9 -19 -8 -22
1 -91 61 -91 78 0 6 13 -3 29 -20 15 -18 34 -31 42 -29z m137 23 c29 2 81 -34
54 -37 -42 -5 -64 0 -57 11 4 6 11 7 17 4 6 -4 8 -2 5 4 -4 5 -15 8 -26 5 -21
-5 -54 24 -44 40 4 6 9 3 14 -9 5 -15 15 -20 37 -18z m505 -2 c-1 -5 -7 -10
-15 -12 -9 -2 -8 0 2 7 8 6 10 11 5 11 -6 0 -16 -5 -23 -12 -9 -9 -12 -6 -12
16 0 27 1 28 23 14 12 -9 21 -19 20 -24z m977 30 c0 -15 -22 -44 -31 -39 -17
11 -10 41 11 42 11 1 20 -1 20 -3z m-1790 -14 c0 -5 -2 -10 -4 -10 -3 0 -8 5
-11 10 -3 6 -1 10 4 10 6 0 11 -4 11 -10z m1295 -10 c3 -5 1 -10 -4 -10 -6 0
-11 5 -11 10 0 6 2 10 4 10 3 0 8 -4 11 -10z m577 -2 c-1 -4 -5 -15 -8 -23 -4
-8 -16 -15 -29 -15 -18 0 -21 5 -18 23 3 17 11 23 31 22 15 0 26 -3 24 -7z
m-543 -21 c1 9 11 8 39 -4 57 -26 64 -33 51 -50 -9 -10 -9 -12 3 -8 21 8 74
-43 59 -58 -6 -6 -11 -16 -11 -21 0 -6 5 -3 11 7 8 14 14 15 30 6 20 -10 20
-11 3 -30 -16 -18 -16 -19 -1 -13 13 5 17 0 17 -21 0 -28 0 -28 -22 -9 -14 11
-18 13 -10 3 10 -13 7 -22 -18 -49 -17 -19 -30 -28 -30 -20 0 7 -2 11 -5 8 -3
-3 -2 -13 1 -23 7 -17 8 -17 20 -1 11 16 13 16 19 -4 4 -12 2 -27 -3 -32 -6
-6 -8 -17 -5 -24 3 -8 0 -14 -5 -14 -11 0 -10 20 4 55 7 18 6 18 -9 6 -9 -7
-17 -27 -17 -43 0 -17 -4 -27 -10 -23 -5 3 -10 -2 -10 -11 0 -19 -15 -10 -15
9 0 7 -8 11 -17 11 -11 -1 -14 4 -11 14 4 10 2 13 -5 8 -8 -4 -12 -1 -12 10 0
10 -2 15 -5 12 -10 -10 7 -58 20 -58 20 0 30 -21 14 -30 -15 -10 -32 -3 -24
10 3 5 -4 14 -15 20 -11 6 -17 16 -14 22 5 7 2 9 -9 5 -10 -4 -22 4 -34 23
-10 15 -35 42 -56 58 -20 17 -32 32 -26 34 9 3 9 9 1 24 -10 17 -11 17 -12 2
0 -24 -27 -23 -40 1 -11 21 -4 50 16 66 6 6 14 21 17 35 9 38 38 52 72 34 30
-16 48 -19 25 -4 -8 5 -11 12 -7 16 9 9 38 -16 31 -27 -3 -5 2 -6 10 -3 9 3
16 1 16 -5 0 -21 16 -11 17 11 2 16 0 19 -6 9 -7 -11 -13 -9 -30 8 -15 15 -28
20 -45 15 -13 -3 -27 -1 -30 5 -4 6 -2 11 3 11 6 0 11 7 11 15 0 8 9 15 20 15
11 0 20 6 21 13 0 6 4 3 9 -8 5 -11 9 -14 9 -8z m-1288 -35 c-9 -30 -8 -31 10
-22 10 6 19 13 19 16 0 3 -4 2 -10 -1 -12 -8 -13 5 -1 23 6 10 10 8 14 -9 3
-13 1 -29 -4 -36 -6 -7 -9 -18 -6 -25 4 -8 6 -7 6 5 1 9 4 17 9 17 6 0 7 -31
3 -72 -1 -5 -8 -8 -16 -8 -20 0 -19 -16 1 -24 8 -3 12 -2 9 4 -3 6 2 10 11 10
16 0 16 -1 -1 -20 -9 -10 -22 -18 -29 -17 -6 1 -10 -4 -8 -11 1 -8 -2 -11 -8
-7 -5 3 -10 12 -10 20 0 7 -10 15 -23 19 -13 3 -24 12 -24 20 0 8 5 13 10 9 5
-3 6 4 2 18 -7 21 -6 22 9 10 15 -12 16 -11 14 15 -2 28 20 109 28 102 2 -3 0
-19 -5 -36z m-741 24 c0 -3 -4 -8 -10 -11 -5 -3 -10 -1 -10 4 0 6 5 11 10 11
6 0 10 -2 10 -4z m820 -17 c0 -12 66 -28 89 -22 14 3 26 -5 45 -33 14 -21 26
-45 26 -54 -1 -12 -3 -11 -11 3 -5 9 -17 17 -25 17 -13 0 -13 -2 1 -16 11 -12
14 -25 9 -46 -8 -40 -35 -72 -46 -55 -5 8 -8 7 -8 -5 0 -10 -5 -18 -11 -18 -5
0 -7 -5 -3 -11 5 -8 9 -8 14 1 5 8 9 7 14 -5 7 -20 -11 -48 -25 -39 -5 3 -7
10 -4 15 4 5 -1 9 -9 9 -9 0 -16 6 -16 14 0 8 -13 20 -30 28 -16 7 -30 15 -30
18 0 10 17 32 24 31 18 -3 29 0 23 5 -9 9 21 36 33 29 6 -3 7 1 4 10 -5 13 -2
14 22 5 23 -9 26 -9 17 1 -7 7 -29 12 -49 11 -20 -1 -44 3 -54 8 -18 10 -25
66 -9 75 5 4 9 1 9 -6 0 -7 3 -9 6 -6 9 9 -16 38 -27 31 -5 -3 -9 2 -9 10 0
10 6 13 15 10 8 -4 15 -10 15 -15z m683 14 c-7 -2 -19 -2 -25 0 -7 3 -2 5 12
5 14 0 19 -2 13 -5z m41 -2 c3 -5 -1 -14 -8 -20 -11 -9 -16 -9 -22 0 -4 8 -3
9 4 5 7 -4 12 -1 12 8 0 18 6 21 14 7z m-551 -35 c-4 -6 1 -5 10 3 16 13 17
11 15 -27 -3 -42 -3 -42 -20 -19 -10 12 -18 27 -18 33 0 7 -8 15 -17 18 -15 6
-15 8 -3 16 17 11 43 -7 33 -24z m398 11 c-1 -12 -15 -9 -19 4 -3 6 1 10 8 8
6 -3 11 -8 11 -12z m94 3 c3 -5 -1 -10 -9 -10 -9 0 -16 5 -16 10 0 6 4 10 9
10 6 0 13 -4 16 -10z m-426 -36 c2 -10 0 -16 -4 -12 -5 4 -14 3 -20 -2 -9 -8
-11 -4 -7 15 5 29 25 28 31 -1z m312 9 c13 -16 12 -17 -3 -4 -17 13 -22 21
-14 21 2 0 10 -8 17 -17z m245 1 c-1 -7 -8 -19 -15 -28 -12 -14 -12 -16 3 -10
12 5 15 1 13 -12 -9 -46 -37 -75 -37 -39 0 8 5 15 10 15 18 0 10 18 -10 23
-13 3 -20 13 -20 29 0 18 2 20 10 8 8 -13 11 -13 22 -1 7 8 8 11 2 8 -6 -3
-11 -1 -11 6 0 7 8 13 17 13 10 0 17 -6 16 -12z m-102 -3 c3 -4 -7 -27 -22
-50 l-27 -41 -7 27 c-5 17 -3 30 4 34 6 4 7 12 2 20 -7 12 -5 12 9 0 9 -7 14
-18 10 -25 -3 -6 -2 -7 3 -3 12 12 12 30 -1 39 -6 5 -3 8 7 8 9 0 19 -4 22 -9z
m-365 -14 c-9 -7 -14 -18 -12 -24 3 -8 -3 -13 -14 -13 -15 0 -16 2 -3 10 8 5
11 10 6 10 -5 0 -3 7 4 15 7 8 18 15 24 15 6 0 4 -6 -5 -13z m197 -25 c25 -21
37 -62 22 -79 -7 -9 -7 -13 1 -13 6 0 11 -8 11 -17 -1 -29 -34 22 -53 78 -16
53 -13 58 19 31z m314 -17 c14 -19 14 -19 -2 -6 -10 7 -18 18 -18 24 0 6 1 8
3 6 1 -2 9 -13 17 -24z m-610 5 c0 -5 -5 -10 -11 -10 -5 0 -7 5 -4 10 3 6 8
10 11 10 2 0 4 -4 4 -10z m518 -34 c-2 -14 -9 -20 -20 -18 -10 2 -18 -2 -18
-8 0 -5 -7 -10 -16 -10 -13 0 -12 7 7 40 18 32 25 37 36 28 8 -6 13 -21 11
-32z m-283 -11 c20 -54 14 -85 -13 -64 -9 7 -14 10 -10 5 4 -5 3 -17 -3 -27
-8 -15 -6 -17 8 -12 10 4 23 13 29 21 7 10 13 11 18 4 3 -6 2 -13 -4 -17 -16
-10 -12 -35 5 -29 18 7 19 0 5 -27 -10 -17 -13 -18 -25 -5 -8 8 -15 22 -15 31
0 9 -4 14 -10 10 -6 -3 -6 -15 0 -29 6 -16 5 -28 -3 -36 -9 -10 -9 -11 1 -6 6
4 12 2 12 -3 0 -16 -16 -13 -30 4 -7 8 -9 23 -6 32 6 14 5 15 -5 6 -9 -9 -18
-9 -31 -2 -17 9 -18 8 -6 -10 6 -11 16 -17 20 -15 4 3 8 -2 8 -10 0 -9 5 -16
12 -16 9 0 9 -3 0 -12 -9 -9 -17 -7 -33 8 -22 19 -22 19 -10 -4 10 -19 8 -25
-16 -46 -15 -13 -32 -22 -36 -19 -12 7 -35 64 -42 103 -5 27 -3 31 11 26 9 -3
24 -1 32 6 12 10 14 10 8 1 -4 -8 -2 -13 5 -13 8 0 8 -4 -1 -15 -9 -11 -16
-12 -25 -5 -9 8 -15 8 -20 0 -3 -5 1 -10 9 -10 9 0 16 -5 16 -11 0 -5 -5 -7
-12 -3 -7 5 -8 3 -3 -6 12 -19 53 38 47 66 -2 13 -8 21 -12 19 -5 -3 -11 -1
-15 5 -4 6 -11 7 -17 4 -7 -4 -6 -9 2 -14 9 -5 9 -9 1 -14 -6 -4 -11 -2 -11 4
0 6 -4 9 -9 6 -4 -3 -7 5 -6 17 1 12 3 28 4 35 0 6 8 12 17 12 10 0 14 -6 11
-14 -7 -18 18 -42 28 -26 3 6 11 8 16 5 5 -4 9 -2 9 3 0 5 -9 12 -20 15 -28 7
-16 33 22 46 25 9 35 8 48 -4 9 -8 21 -15 26 -15 5 0 1 5 -9 11 -9 6 -14 15
-11 21 7 10 -37 6 -84 -8 -9 -3 0 4 21 15 21 11 46 17 55 14 9 -3 14 -3 10 2
-6 7 8 35 17 35 1 0 10 -20 20 -45z m-445 3 c0 -13 -23 -5 -28 10 -2 7 2 10
12 6 9 -3 16 -11 16 -16z m1584 -7 c-10 -2 -23 -8 -27 -15 -5 -6 -6 -1 -2 11
5 18 3 22 -9 17 -20 -8 -20 -18 0 -38 16 -16 9 -21 -25 -17 -7 2 -10 -2 -6 -8
10 -16 -21 -13 -34 3 -10 12 -9 20 5 41 9 14 22 24 29 21 6 -2 18 0 25 4 7 4
24 3 38 -3 23 -11 24 -12 6 -16z m-745 3 c2 -2 -12 -3 -32 -2 -20 1 -34 5 -31
10 5 7 52 1 63 -8z m-652 -36 c-9 -6 -9 -8 1 -8 6 0 12 -7 12 -15 0 -20 -16
-19 -24 1 -4 9 -9 14 -13 11 -3 -4 -1 -12 5 -20 6 -7 10 -23 9 -35 -1 -20 -3
-20 -19 -6 -12 12 -15 25 -12 48 10 56 11 58 33 44 15 -9 17 -14 8 -20z m713
24 c0 -5 7 -17 16 -28 14 -18 14 -18 3 6 -11 23 -11 24 4 11 10 -7 17 -9 17
-4 0 16 35 8 68 -16 17 -12 31 -27 29 -34 -1 -6 3 -11 8 -12 19 -1 80 -44 93
-65 12 -20 11 -21 -7 -15 -10 3 -22 1 -25 -4 -11 -16 -38 0 -31 18 5 13 4 14
-7 3 -15 -15 0 -47 23 -47 8 -1 13 -6 12 -13 -2 -7 0 -11 5 -10 4 1 20 -4 35
-10 23 -10 28 -17 25 -39 -4 -36 -38 -45 -38 -10 0 14 -6 24 -15 24 -11 0 -12
-4 -4 -13 14 -18 3 -34 -24 -34 -16 0 -18 -3 -9 -9 11 -6 10 -10 -4 -15 -10
-4 -20 -3 -23 1 -3 4 -12 9 -20 11 -12 3 -12 1 -1 -13 7 -9 9 -15 4 -14 -5 1
-11 0 -14 -1 -3 -1 -17 -4 -32 -6 -21 -4 -28 -1 -28 11 0 21 57 105 76 112 13
5 13 23 2 60 -1 6 6 19 17 27 l20 16 -20 -7 c-20 -7 -52 -43 -48 -54 1 -4 -7
-15 -17 -24 -11 -10 -20 -24 -20 -32 0 -7 -9 -13 -20 -13 -11 0 -20 -4 -20 -9
0 -13 -29 -41 -41 -41 -6 0 -8 4 -5 9 3 4 -6 6 -19 3 -14 -2 -32 1 -40 8 -10
8 -15 9 -15 2 0 -6 -6 -10 -12 -8 -7 1 -10 1 -6 -1 4 -2 4 -11 1 -19 -4 -11
-9 -12 -18 -4 -7 6 -19 9 -26 8 -9 -2 -13 5 -12 17 1 11 0 14 -3 8 -3 -7 -10
-13 -15 -13 -6 0 -7 4 -4 10 4 6 -1 7 -11 3 -12 -4 -24 2 -39 21 -16 21 -25
25 -30 16 -5 -9 -4 -11 3 -6 8 5 12 0 12 -13 0 -12 3 -20 8 -19 27 6 92 -44
72 -57 -5 -3 -10 -11 -10 -16 0 -6 5 -7 12 -3 7 4 8 3 4 -4 -5 -9 -13 -9 -28
-1 -15 8 -19 8 -14 0 4 -6 0 -11 -9 -11 -9 0 -13 -5 -9 -11 4 -7 10 -7 16 -1
10 10 48 5 48 -7 -1 -16 -17 -26 -44 -26 -24 0 -31 6 -47 47 -25 64 -31 98
-16 98 9 0 9 2 1 8 -10 6 -12 60 -2 66 18 10 68 23 68 17 0 -4 7 -16 15 -27
10 -13 13 -14 10 -3 -4 9 0 16 7 16 7 0 21 4 31 8 12 5 17 2 17 -11 0 -27 10
-10 15 25 2 17 -1 34 -7 37 -6 4 -8 3 -5 -3 4 -6 -5 -15 -19 -22 -32 -14 -57
-14 -48 0 3 6 -8 4 -24 -5 -40 -21 -42 -20 -42 7 0 41 30 58 84 48 26 -5 54
-15 64 -24 9 -8 25 -13 35 -12 9 2 17 0 17 -5 0 -13 -26 -30 -35 -22 -5 4 -5
2 -1 -5 8 -15 32 -7 40 13 8 22 42 17 55 -8 6 -13 9 -15 7 -5 -8 26 28 22 48
-5 9 -13 14 -17 11 -10 -3 6 -2 12 3 12 5 0 9 7 9 15 0 8 -3 12 -7 10 -4 -2
-24 0 -44 6 -27 7 -36 15 -34 27 2 11 12 17 26 16 13 -1 20 1 17 5 -4 3 -16 6
-28 6 -18 0 -23 7 -25 34 -2 19 -11 41 -20 48 -15 11 -15 12 6 13 12 0 22 -4
22 -8z m-1050 -12 c0 -5 7 -7 15 -4 8 4 15 2 15 -4 0 -5 -11 -12 -25 -14 -13
-3 -22 -1 -19 3 3 5 0 9 -6 9 -6 0 -8 5 -5 10 8 13 25 13 25 0z m970 6 c0 -3
-4 -8 -10 -11 -5 -3 -10 -1 -10 4 0 6 5 11 10 11 6 0 10 -2 10 -4z m60 -31 c0
-18 -17 -20 -23 -2 -2 6 -4 -1 -4 -16 0 -15 7 -33 16 -40 16 -12 26 -37 16
-37 -24 0 -75 32 -75 47 0 35 12 63 27 63 8 0 11 5 7 11 -4 8 0 8 15 0 11 -7
21 -18 21 -26z m-136 10 c3 -8 0 -15 -7 -15 -6 0 -1 -7 11 -16 12 -8 22 -20
22 -26 0 -6 -11 -1 -24 11 -14 13 -24 32 -23 42 2 23 13 25 21 4z m42 1 c8 -8
14 -27 14 -42 l0 -27 -23 21 c-23 22 -34 62 -16 62 6 0 17 -6 25 -14z m644 -8
c0 -16 -3 -19 -11 -11 -6 6 -8 16 -5 22 11 17 16 13 16 -11z m259 1 c-10 -6
-8 -9 8 -9 16 0 21 -4 17 -15 -8 -21 -21 -19 -34 5 -12 23 -5 44 12 34 6 -4 5
-10 -3 -15z m-996 4 c-7 -2 -13 -12 -13 -20 0 -9 -9 -23 -19 -32 -10 -9 -25
-37 -32 -61 -12 -42 -13 -43 -17 -16 -2 16 1 32 6 35 6 3 13 20 16 36 6 26 5
27 -3 8 -6 -13 -13 -23 -16 -23 -11 0 -4 29 11 44 8 9 13 16 9 16 -3 0 -3 5 0
10 3 6 21 10 38 9 18 0 26 -3 20 -6z m-759 -28 c-4 -8 -10 -12 -15 -9 -11 6
-2 24 11 24 5 0 7 -7 4 -15z m946 -21 c0 -8 -4 -12 -10 -9 -5 3 -10 10 -10 16
0 5 5 9 10 9 6 0 10 -7 10 -16z m870 0 c0 -8 -6 -11 -15 -8 -8 4 -15 9 -15 13
0 4 7 8 15 8 8 0 15 -6 15 -13z m-1540 -13 c0 -11 -4 -23 -10 -26 -5 -3 -10
-18 -10 -33 0 -32 -9 -46 -32 -55 -12 -4 -18 -1 -18 9 0 10 -6 14 -15 10 -8
-3 -15 -1 -15 5 0 6 -4 8 -9 4 -6 -3 -6 8 0 27 6 18 13 41 16 51 3 10 11 16
17 14 17 -6 20 -38 4 -48 -10 -7 -9 -9 5 -9 9 0 17 5 17 10 0 6 7 10 15 10 9
0 15 6 14 13 -3 23 1 37 11 37 6 0 10 -9 10 -19z m-355 -10 c-2 -11 3 -22 11
-25 8 -3 13 -2 10 3 -7 11 36 23 44 13 3 -4 14 -7 26 -6 11 1 21 -5 21 -12 0
-8 -4 -14 -9 -14 -4 0 -8 -9 -8 -19 0 -10 -7 -22 -16 -25 -8 -3 -13 -2 -10 3
3 5 -1 12 -10 15 -10 4 -13 13 -9 26 4 11 2 20 -4 20 -6 0 -10 -3 -10 -7 3
-19 -3 -47 -8 -35 -2 6 -9 9 -14 6 -6 -3 -3 -11 6 -18 15 -11 15 -13 1 -25
-14 -12 -16 -10 -17 10 -1 13 0 32 1 43 1 10 -2 16 -7 13 -5 -3 -10 8 -11 24
-1 16 2 29 7 29 6 0 8 -9 6 -19z m62 13 c-3 -3 -12 -4 -19 -1 -8 3 -5 6 6 6
11 1 17 -2 13 -5z m93 -50 c0 -8 4 -13 9 -9 11 6 36 -33 27 -42 -10 -10 -25 8
-20 25 5 15 4 15 -6 -1 -6 -10 -9 -24 -7 -31 4 -10 -1 -12 -14 -9 -16 5 -17 8
-7 21 12 14 11 14 -10 1 -12 -8 -18 -15 -12 -17 6 -2 7 -8 4 -14 -3 -5 2 -16
12 -23 18 -13 18 -15 -12 -45 l-30 -31 -25 20 c-19 16 -22 22 -11 32 6 7 12
20 11 29 0 10 -4 7 -11 -7 -6 -13 -14 -23 -18 -23 -15 0 -17 39 -4 58 7 11 10
23 6 27 -4 5 -1 5 6 1 6 -4 12 -12 12 -17 0 -6 6 -17 14 -24 12 -12 16 -12 26
0 10 12 10 15 0 15 -7 0 -2 9 11 20 16 12 19 19 10 20 -8 0 -12 3 -9 6 4 3 16
1 27 -6 14 -7 21 -7 21 0 0 5 -4 10 -9 10 -5 0 -11 7 -15 15 -3 9 0 15 9 15 8
0 15 -7 15 -16z m1622 -16 c-7 -7 -12 -8 -12 -2 0 14 12 26 19 19 2 -3 -1 -11
-7 -17z m-1933 -35 c10 2 25 0 32 -5 11 -8 10 -9 -3 -5 -9 3 -19 -1 -22 -10
-4 -9 -13 -13 -24 -9 -12 4 -11 1 6 -13 12 -11 22 -24 22 -30 0 -22 -16 -10
-38 30 -13 23 -19 38 -13 35 6 -4 11 -3 11 3 0 5 -5 11 -12 13 -7 3 -8 9 -3
18 6 10 10 8 17 -9 6 -16 14 -22 27 -18z m801 1 c0 -19 -4 -33 -8 -30 -12 7
-13 66 -1 66 5 0 9 -16 9 -36z m1077 18 c-10 -10 -17 -24 -17 -30 0 -7 -10
-12 -22 -12 -22 0 -22 1 7 29 33 32 58 42 32 13z m25 -14 c-8 -8 -9 -4 -5 13
4 13 8 18 11 10 2 -7 -1 -18 -6 -23z m-572 6 c0 -9 -10 -25 -22 -35 -11 -11
-18 -19 -14 -19 4 0 -1 -13 -11 -30 -9 -16 -21 -30 -25 -30 -4 0 -8 -9 -8 -19
0 -25 -17 -36 -34 -22 -10 9 -15 8 -19 -1 -2 -8 -18 -14 -33 -15 -16 0 -21 1
-11 4 9 2 17 11 17 20 0 9 6 13 15 9 8 -3 15 -1 15 4 0 5 9 11 19 15 12 4 18
12 14 21 -3 9 5 18 26 25 17 6 28 15 25 21 -3 5 3 18 15 29 12 11 19 24 16 30
-4 5 -1 9 4 9 6 0 11 -7 11 -16z m108 -4 c14 -23 5 -26 -20 -6 -10 7 -15 16
-11 19 10 11 18 8 31 -13z m-679 -19 c-7 -2 -6 -6 2 -12 7 -4 10 -11 6 -15 -4
-4 -15 0 -24 9 -14 13 -14 19 -3 32 11 13 15 13 21 3 5 -7 4 -15 -2 -17z
m-661 -11 c8 0 12 -3 9 -7 -4 -3 -2 -12 5 -20 8 -11 7 -12 -5 -8 -10 4 -18 -1
-22 -17 -9 -29 -27 -41 -37 -25 -6 9 -8 8 -8 -3 0 -13 -1 -13 -10 0 -8 12 -12
13 -19 2 -6 -11 -14 -8 -36 11 -19 16 -24 26 -17 31 7 4 12 1 12 -7 0 -17 27
-30 41 -21 6 3 9 13 8 22 -3 30 1 35 17 21 19 -15 47 -21 38 -8 -3 5 -9 7 -14
4 -4 -3 -11 2 -14 11 -4 12 -2 15 9 10 10 -3 15 1 16 12 0 10 3 12 6 5 2 -7
12 -13 21 -13z m256 -6 c9 -25 7 -31 -11 -36 -11 -3 -29 6 -43 21 -18 19 -20
23 -6 18 9 -4 22 -7 27 -7 6 0 7 -4 4 -10 -3 -5 -2 -10 3 -10 16 0 22 13 11
27 -7 8 -8 13 -1 13 5 0 13 -7 16 -16z m190 -24 c15 -31 8 -37 -25 -20 -18 10
-26 40 -13 53 10 10 21 0 38 -33z m198 -24 c-12 -26 -42 -31 -42 -7 0 12 -2
13 -8 3 -12 -18 -67 -21 -67 -3 0 8 9 19 20 25 11 6 24 17 28 24 12 19 25 14
30 -10 4 -20 4 -19 6 5 l1 27 21 -21 c17 -17 19 -26 11 -43z m768 31 c0 -12 4
-16 13 -11 8 5 8 3 -2 -9 -7 -9 -17 -14 -22 -11 -5 3 -8 0 -7 -7 2 -6 -2 -13
-9 -16 -8 -3 -9 6 -3 31 5 24 4 37 -4 40 -6 2 -1 3 12 3 14 -1 22 -8 22 -20z
m330 -2 c0 -6 -11 -8 -23 -7 -27 5 -31 8 -23 21 8 12 48 -1 46 -14z m-1420 3
c0 8 6 12 13 9 6 -2 11 -10 10 -16 -2 -6 6 -11 17 -11 13 0 20 -7 20 -20 0
-13 -5 -18 -15 -14 -8 4 -15 1 -15 -5 0 -6 6 -11 13 -12 10 0 10 -2 0 -6 -7
-2 -13 -13 -13 -24 0 -11 -7 -19 -16 -19 -11 0 -15 6 -11 20 3 11 1 20 -4 20
-5 0 -9 12 -8 28 1 15 -2 36 -6 47 -5 16 -5 17 4 5 8 -11 11 -12 11 -2z m1367
-19 c11 -11 6 -49 -7 -49 -14 0 -32 29 -25 41 5 8 0 9 -16 4 -19 -5 -21 -4 -9
4 19 14 43 14 57 0z m-1677 -30 c-8 -14 -8 -24 -1 -33 6 -7 8 -16 4 -19 -13
-13 -23 -7 -24 16 -1 17 -2 18 -6 4 -2 -9 -9 -15 -14 -12 -15 10 -10 23 11 30
11 4 18 10 15 15 -4 7 5 14 23 19 1 1 -2 -8 -8 -20z m678 -30 c0 -22 -2 -38
-5 -35 -8 8 -21 75 -15 80 12 12 21 -7 20 -45z m1071 13 c-5 -2 -16 2 -25 9
-11 9 -12 14 -3 20 8 4 18 1 25 -9 7 -10 9 -18 3 -20z m-1524 18 c3 -5 -1 -10
-9 -10 -9 0 -16 5 -16 10 0 6 4 10 9 10 6 0 13 -4 16 -10z m1401 -2 c4 -6 3
-8 -3 -5 -6 4 -13 0 -17 -8 -3 -8 -13 -15 -23 -14 -16 0 -16 1 2 9 11 5 14 9
8 9 -7 1 -13 5 -13 9 0 12 39 12 46 0z m-1170 -24 c-17 -12 -56 -8 -56 6 0 10
40 18 59 11 11 -3 10 -7 -3 -17z m604 8 c3 -3 -1 -7 -8 -9 -6 -3 -9 -10 -6
-15 4 -7 2 -8 -4 -4 -6 4 -19 -5 -28 -19 -12 -19 -22 -24 -37 -19 -13 4 -17 2
-13 -5 5 -7 1 -9 -9 -5 -9 4 -14 12 -11 19 2 7 0 17 -4 21 -5 5 -5 15 1 24 8
13 13 11 31 -10 11 -14 19 -18 16 -10 -10 29 10 51 40 44 15 -4 29 -9 32 -12z
m728 -7 c-3 -3 -9 2 -12 12 -6 14 -5 15 5 6 7 -7 10 -15 7 -18z m-1210 -10 c0
-13 -7 -30 -14 -36 -10 -8 -14 -8 -14 0 0 6 6 11 13 12 9 0 9 2 0 6 -10 3 -10
9 0 24 15 24 15 24 15 -6z m71 -50 c-7 -7 -8 -4 -4 6 8 20 -10 35 -21 18 -5
-8 -3 -9 7 -4 11 6 11 5 2 -5 -11 -12 -33 -6 -33 10 0 5 10 19 22 30 l23 21 7
-33 c4 -18 2 -37 -3 -43z m1055 66 c3 -5 -1 -11 -9 -14 -9 -4 -12 -1 -8 9 6
16 10 17 17 5z m-1680 -17 c8 -22 8 -39 -1 -30 -5 4 -8 11 -8 14 0 4 -4 13 -8
20 -5 6 -4 12 1 12 6 0 13 -7 16 -16z m66 -5 c0 -6 -4 -7 -10 -4 -5 3 -10 11
-10 16 0 6 5 7 10 4 6 -3 10 -11 10 -16z m116 -6 c-7 -7 -26 7 -26 19 0 6 6 6
15 -2 9 -7 13 -15 11 -17z m34 21 c0 -8 -19 -13 -24 -6 -3 5 1 9 9 9 8 0 15
-2 15 -3z m148 -1 c-1 -5 1 -18 6 -30 4 -13 2 -30 -4 -40 -7 -12 -10 -13 -7
-3 2 8 0 23 -5 33 -5 10 -7 25 -4 33 5 14 18 20 14 7z m966 -7 c-3 -8 -12 -12
-20 -9 -21 8 -17 23 6 23 13 0 18 -5 14 -14z m-1414 -26 c-24 -15 -31 -11 -18
10 9 13 16 16 23 9 7 -7 5 -13 -5 -19z m807 8 c-3 -8 -6 -5 -6 6 -1 11 2 17 5
13 3 -3 4 -12 1 -19z m572 8 c9 -10 7 -17 -6 -27 -11 -9 -14 -10 -9 -1 4 8 1
12 -9 12 -10 0 -15 -6 -12 -13 3 -7 -7 -28 -23 -45 -25 -29 -28 -30 -36 -13
-7 14 -14 16 -29 10 -19 -7 -19 -8 3 -8 12 -1 22 -6 22 -12 0 -12 -36 -3 -65
17 -19 14 -19 14 5 15 14 1 28 1 33 0 4 0 7 6 7 14 0 12 -4 13 -19 5 -25 -13
-41 -13 -41 0 0 6 3 9 8 8 4 0 14 2 22 5 20 9 73 -6 78 -22 3 -9 0 -11 -8 -6
-9 5 -11 4 -6 -4 6 -9 11 -9 22 0 12 10 12 14 2 20 -7 5 -8 9 -3 10 6 0 1 4
-10 8 -18 8 -16 10 15 24 45 20 45 20 59 3z m231 -20 l9 -21 0 21 c1 16 9 23
31 26 16 2 32 0 34 -6 3 -7 7 -7 13 1 7 10 13 10 28 -1 18 -13 16 -14 -20 -12
-23 1 -46 -4 -54 -12 -11 -11 -9 -12 13 -6 17 4 26 2 26 -6 0 -6 -4 -9 -9 -6
-4 3 -6 -7 -4 -22 l4 -27 -14 24 c-10 17 -16 20 -19 10 -3 -8 1 -22 10 -32 8
-9 12 -20 8 -24 -4 -4 -12 -1 -17 7 -9 13 -10 13 -6 0 3 -10 15 -14 33 -13 16
1 23 0 16 -3 -6 -3 -10 -10 -7 -15 7 -10 -24 0 -43 14 -7 5 -10 17 -7 26 2 9
0 23 -5 31 -11 17 -12 16 -14 -27 -2 -44 -20 -61 -41 -40 -8 9 -14 20 -13 24
1 4 -1 25 -5 46 -8 39 -23 51 -23 18 0 -11 4 -17 8 -15 14 9 8 -70 -6 -88 -15
-21 -36 -24 -36 -5 0 9 -3 8 -9 -2 -5 -7 -6 -22 -4 -32 6 -22 -16 -26 -36 -6
-10 10 -12 9 -9 -2 5 -20 -38 -20 -50 0 -9 15 -6 24 15 50 l27 32 19 -39 c10
-21 15 -28 12 -14 -4 14 -9 34 -12 45 -3 15 11 35 55 78 63 60 85 65 102 23z
m210 24 c0 -13 -11 -13 -30 0 -12 8 -11 10 8 10 12 0 22 -4 22 -10z m54 -2
c-4 -6 1 -17 11 -24 10 -8 16 -16 13 -20 -4 -3 -15 3 -26 14 -15 15 -17 23 -9
31 14 14 20 14 11 -1z m-1557 -17 c16 14 17 -3 1 -19 -17 -17 -25 -15 -31 9
-4 16 -3 19 5 11 8 -8 15 -9 25 -1z m1489 -7 c18 -14 18 -15 -3 -4 -27 13 -30
4 -6 -22 15 -17 15 -18 -1 -18 -9 0 -14 5 -11 10 6 9 -8 14 -27 11 -5 0 -8 8
-8 19 0 24 28 27 56 4z m137 -19 c-7 -19 -33 -19 -33 0 0 9 6 12 17 8 12 -5
14 -3 8 7 -5 8 -4 11 3 6 6 -4 9 -13 5 -21z m-1733 11 c0 -2 -7 -7 -16 -10 -8
-3 -12 -2 -9 4 6 10 25 14 25 6z m1519 -5 c19 -12 6 -41 -19 -41 -11 0 -20 5
-20 10 0 6 10 10 23 10 21 1 22 1 3 15 -21 16 -10 21 13 6z m-1654 -18 c-16
-12 -16 -14 -3 -10 21 7 33 -9 20 -26 -5 -7 -8 -22 -7 -34 2 -30 -5 -29 -43 9
l-33 31 22 24 c13 12 32 23 43 23 21 -1 21 -1 1 -17z m259 -4 c-3 -5 -10 -7
-15 -3 -5 3 -7 10 -3 15 3 5 10 7 15 3 5 -3 7 -10 3 -15z m66 11 c0 -5 -4 -10
-10 -10 -5 0 -10 5 -10 10 0 6 5 10 10 10 6 0 10 -4 10 -10z m27 -9 c0 -11 -5
-18 -9 -15 -4 3 -5 11 -1 19 7 21 12 19 10 -4z m246 0 c-4 -3 -9 -14 -9 -23
-2 -17 10 -22 44 -21 6 1 12 -3 12 -8 0 -5 -5 -9 -11 -9 -6 0 -9 -6 -6 -13 3
-8 0 -14 -6 -14 -7 0 -24 -4 -39 -8 -31 -8 -37 5 -13 25 10 8 13 23 9 51 -5
34 -3 38 11 33 9 -4 13 -10 8 -13z m-419 -12 c-3 -5 0 -9 5 -9 6 0 11 -5 11
-11 0 -5 -4 -8 -9 -4 -5 3 -13 0 -17 -6 -4 -8 -3 -9 4 -5 7 4 12 2 12 -3 0 -6
-9 -11 -20 -11 -15 0 -19 5 -16 23 3 12 5 27 5 34 1 7 8 10 16 7 8 -4 12 -10
9 -15z m376 2 c0 -29 -15 -33 -18 -5 -1 13 3 24 8 24 6 0 10 -9 10 -19z m468
0 c-11 -18 -43 -21 -57 -5 -3 4 1 5 11 1 9 -3 24 1 35 8 24 19 25 18 11 -4z
m-798 -6 c10 -12 10 -19 2 -27 -7 -7 -12 -8 -12 -2 0 5 -4 3 -8 -4 -6 -8 -9
-2 -9 18 0 33 8 38 27 15z m1487 -21 c-15 -14 -80 -27 -72 -15 3 5 -1 12 -7
15 -9 4 -8 5 2 4 21 -2 51 13 45 22 -3 5 6 3 20 -3 18 -9 21 -15 12 -23z
m-1597 6 c0 -11 -5 -20 -11 -20 -5 0 -7 -5 -3 -12 5 -7 11 -5 21 7 11 16 13
17 13 3 0 -25 -20 -33 -37 -15 -9 9 -13 23 -8 36 8 27 25 27 25 1z m520 10
c-8 -5 -19 -10 -25 -10 -5 0 -3 5 5 10 8 5 20 10 25 10 6 0 3 -5 -5 -10z m127
-5 c8 -22 -6 -33 -17 -15 -13 20 -12 30 0 30 6 0 13 -7 17 -15z m289 0 c-21
-16 -32 -13 -21 4 3 6 14 11 23 11 15 -1 15 -2 -2 -15z m854 0 c0 -9 -6 -12
-15 -9 -8 4 -15 10 -15 15 0 5 7 9 15 9 8 0 15 -7 15 -15z m-2008 -2 c-6 -3
-9 -10 -5 -16 4 -7 -1 -6 -10 2 -21 17 -21 17 6 18 12 0 16 -1 9 -4z m1118
-18 c0 -1 -10 -5 -23 -7 -14 -3 -24 0 -24 7 0 7 10 10 24 7 13 -2 23 -6 23 -7z
m133 -8 c-4 -6 0 -8 9 -5 8 4 21 2 29 -3 12 -8 12 -10 -1 -18 -8 -5 -18 -7
-22 -5 -4 3 -8 0 -8 -6 0 -7 7 -10 15 -6 17 6 18 4 9 -18 -5 -13 -9 -14 -20
-5 -12 9 -13 9 -9 -3 4 -9 0 -15 -9 -15 -8 0 -13 4 -10 9 7 12 -10 10 -23 -3
-7 -7 -12 -6 -16 5 -4 9 -3 15 1 13 4 -1 18 6 30 15 20 13 22 20 13 36 -15 27
-14 32 4 26 8 -4 12 -11 8 -17z m-1313 3 c0 -5 -5 -10 -11 -10 -5 0 -7 5 -4
10 3 6 8 10 11 10 2 0 4 -4 4 -10z m416 -6 c-5 -14 -4 -15 8 -5 20 17 32 8 57
-42 12 -23 18 -39 13 -34 -4 4 -19 -4 -33 -17 -14 -13 -37 -26 -51 -30 -14 -3
-20 -3 -13 0 7 3 9 14 3 34 -6 22 -5 30 7 34 11 5 13 2 9 -11 -5 -13 -4 -15 4
-7 6 6 8 19 4 28 -5 14 -9 15 -15 5 -12 -20 -17 -8 -12 29 3 17 10 32 15 32 6
0 7 -7 4 -16z m516 -64 c-2 -22 -8 -40 -13 -40 -5 0 -9 -9 -9 -20 0 -13 -7
-20 -19 -20 -17 0 -18 5 -14 43 3 23 12 49 20 59 10 11 11 18 4 23 -6 3 -11
13 -11 22 0 14 4 13 23 -5 18 -17 22 -30 19 -62z m-842 55 c0 -9 7 -18 15 -21
8 -4 15 -10 15 -15 0 -4 -7 -6 -16 -2 -9 3 -20 0 -26 -8 -8 -11 -9 -11 -5 3 3
9 1 18 -5 20 -14 5 -3 38 12 38 5 0 10 -7 10 -15z m1137 -7 c-3 -8 -6 -5 -6 6
-1 11 2 17 5 13 3 -3 4 -12 1 -19z m67 7 c3 -9 0 -15 -9 -15 -8 0 -15 -5 -15
-12 0 -6 -2 -9 -5 -7 -6 7 6 49 15 49 4 0 10 -7 14 -15z m-88 -18 c1 -10 -2
-15 -7 -11 -5 3 -6 10 -3 16 4 6 2 8 -4 5 -5 -4 -8 -16 -5 -27 3 -11 1 -20 -5
-20 -13 0 -26 36 -18 49 10 15 39 6 42 -12z m658 1 c7 22 26 31 26 11 0 -5 4
-8 9 -5 5 4 8 -2 7 -11 -2 -9 -9 -19 -17 -21 -11 -3 -12 -2 -1 6 11 7 11 10
-2 15 -11 4 -16 1 -16 -11 0 -10 -5 -23 -12 -30 -14 -14 -52 -16 -43 -2 3 5
13 7 23 4 11 -4 8 2 -8 15 -14 11 -29 21 -33 21 -5 0 -5 5 -1 11 3 6 15 9 25
6 11 -3 19 0 20 6 1 7 4 1 8 -13 l7 -25 8 23z m-1490 -19 c-1 -13 -2 -35 -3
-49 -1 -18 -4 -21 -10 -11 -5 8 -14 10 -22 6 -8 -5 -11 -5 -7 0 4 4 3 14 -3
21 -17 21 -3 47 22 41 17 -5 18 -3 7 10 -11 14 -11 15 2 11 8 -3 14 -15 14
-29z m-164 11 c0 -5 -2 -10 -4 -10 -3 0 -8 5 -11 10 -3 6 -1 10 4 10 6 0 11
-4 11 -10z m85 -10 c3 -6 -1 -7 -9 -4 -18 7 -21 14 -7 14 6 0 13 -4 16 -10z
m1380 -4 c8 -7 11 -16 8 -20 -4 -3 -1 -6 7 -6 9 0 9 -4 2 -12 -5 -7 -12 -22
-16 -33 -3 -13 -4 -11 -2 7 2 20 -3 29 -21 37 -23 11 -29 22 -16 34 10 11 23
8 38 -7z m-1540 -6 c-3 -6 1 -13 9 -16 24 -9 8 -26 -17 -18 -32 9 -33 13 -11
29 23 17 27 18 19 5z m674 -1 c-10 -6 -10 -9 -1 -9 6 0 12 -4 12 -10 0 -5 -7
-10 -15 -10 -8 0 -15 5 -15 10 0 18 -16 10 -17 -8 -1 -15 4 -18 24 -14 22 4
24 3 15 -15 -17 -30 -38 -45 -75 -50 -33 -4 -34 -3 -29 27 6 41 21 48 44 19
l19 -24 -12 25 c-7 14 -19 30 -27 36 -12 9 -12 13 -2 19 8 5 11 4 7 -2 -4 -6
0 -14 9 -17 20 -8 24 -8 23 2 -3 20 3 27 28 29 19 1 22 -1 12 -8z m360 -14
c18 -24 20 -25 30 -8 6 10 11 13 11 6 0 -20 -29 -41 -50 -36 -21 6 -21 6 -25
41 -3 29 9 28 34 -3z m556 15 c-3 -5 -10 -10 -16 -10 -5 0 -9 5 -9 10 0 6 7
10 16 10 8 0 12 -4 9 -10z m85 0 c0 -5 -7 -7 -15 -4 -8 4 -15 8 -15 10 0 2 7
4 15 4 8 0 15 -4 15 -10z m-736 -36 c3 -8 2 -12 -4 -9 -6 3 -10 10 -10 16 0
14 7 11 14 -7z m26 -24 c-7 -5 -14 -20 -16 -35 -2 -15 -5 -30 -9 -33 -9 -10
-33 31 -27 48 5 13 3 13 -11 1 -25 -20 -21 -7 5 15 12 10 18 13 14 7 -10 -17
10 -16 26 1 7 8 17 12 22 9 4 -3 2 -9 -4 -13z m154 12 c3 -5 -1 -9 -9 -9 -8 0
-15 4 -15 9 0 4 4 8 9 8 6 0 12 -4 15 -8z m224 -4 c-6 -18 -28 -21 -28 -4 0 9
7 16 16 16 9 0 14 -5 12 -12z m241 -9 c-15 -9 -32 -2 -24 11 3 5 13 6 21 3 12
-4 13 -8 3 -14z m-469 -26 c0 -7 -9 -13 -20 -13 -15 0 -19 6 -18 24 2 20 5 22
20 12 10 -6 18 -16 18 -23z m-932 2 c-3 -3 -9 2 -12 12 -6 14 -5 15 5 6 7 -7
10 -15 7 -18z m853 15 c20 -11 27 -40 9 -40 -5 0 -7 8 -4 18 5 14 3 14 -10 -2
-9 -11 -16 -24 -16 -29 0 -4 -6 -5 -12 -2 -7 4 -4 -1 6 -9 11 -9 17 -16 13
-16 -4 0 -3 -10 4 -21 12 -24 8 -22 -42 12 -20 14 -25 25 -21 44 2 14 9 25 14
25 5 0 6 5 2 12 -4 6 -3 8 4 4 6 -3 13 -2 17 4 8 13 12 13 36 0z m779 -22 c0
-17 -23 -3 -26 16 -2 14 0 15 12 5 8 -6 14 -16 14 -21z m-188 -8 c15 -26 15
-30 2 -30 -8 0 -13 4 -10 8 2 4 1 14 -5 22 -7 13 -9 13 -9 0 0 -13 -1 -13 -10
0 -13 20 -12 30 3 30 6 0 20 -14 29 -30z m-970 -57 c-13 -24 -4 -73 12 -67 7
3 12 -5 12 -21 0 -35 -19 -26 -30 16 -6 19 -19 41 -29 49 -19 15 -19 16 -1 30
17 14 18 14 5 -2 -12 -16 -11 -18 2 -18 23 0 27 22 8 45 -15 19 -15 19 3 5 18
-14 19 -13 14 2 -4 9 -4 19 0 23 11 11 14 -42 4 -62z m118 51 c0 -8 -19 -13
-24 -6 -3 5 1 9 9 9 8 0 15 -2 15 -3z m-172 -37 c-16 -16 -38 -11 -38 9 0 9 4
13 8 10 4 -2 14 -1 22 4 20 12 26 -6 8 -23z m507 22 c3 -3 -4 -14 -15 -24 -11
-10 -20 -13 -20 -7 0 7 5 12 11 12 8 0 8 4 0 14 -10 11 -9 14 3 12 9 -1 18 -4
21 -7z m-350 -19 c-3 -5 -11 -10 -16 -10 -6 0 -7 5 -4 10 3 6 11 10 16 10 6 0
7 -4 4 -10z m135 -5 c0 -5 5 -3 10 5 6 9 10 10 10 3 0 -19 -14 -22 -40 -8 -24
13 -24 14 -2 12 12 -1 22 -6 22 -12z m157 -37 c-3 -7 -5 -2 -5 12 0 14 2 19 5
13 2 -7 2 -19 0 -25z m-377 -10 c0 -18 -2 -20 -9 -8 -6 8 -7 18 -5 22 9 14 14
9 14 -14z m188 -16 c2 -7 -5 -12 -17 -12 -14 0 -19 5 -14 15 6 17 25 15 31 -3z
m156 -1 c3 -4 -6 -6 -19 -3 -14 2 -25 6 -25 8 0 8 39 4 44 -5z m286 -2 c0 -8
5 -8 15 1 9 7 15 8 15 2 0 -14 -28 -23 -36 -11 -4 7 -10 7 -17 0 -6 -6 -16
-11 -21 -11 -12 1 24 30 36 30 4 0 8 -5 8 -11z m100 -9 c0 -17 -28 -18 -33 -1
-3 14 0 17 14 14 11 -3 19 -9 19 -13z m-560 -14 c0 -11 -19 -15 -25 -6 -3 5 1
10 9 10 9 0 16 -2 16 -4z m110 -31 c0 -17 -5 -23 -19 -22 -14 1 -17 5 -11 13
6 6 7 14 4 17 -9 9 6 28 17 22 5 -4 9 -17 9 -30z m-40 10 c0 -10 -10 -15 -32
-15 -31 1 -32 1 -14 15 25 19 46 19 46 0z m355 -15 c-3 -5 -11 -10 -16 -10 -6
0 -7 5 -4 10 3 6 11 10 16 10 6 0 7 -4 4 -10z m-375 -19 c0 -5 8 -12 18 -14 9
-3 2 -5 -15 -6 -18 0 -33 3 -33 8 0 5 -8 12 -17 14 -10 3 -3 5 15 6 17 0 32
-3 32 -8z m330 5 c0 -11 -19 -15 -25 -6 -3 5 1 10 9 10 9 0 16 -2 16 -4z m50
-36 c0 -4 -10 -10 -23 -12 -17 -3 -24 0 -24 11 0 9 5 19 11 23 11 7 36 -8 36
-22z m-103 -53 c0 -7 -11 -13 -24 -13 -23 0 -29 7 -16 19 11 12 40 8 40 -6z
m-42 -37 c-3 -5 -10 -10 -16 -10 -5 0 -9 5 -9 10 0 6 7 10 16 10 8 0 12 -4 9
-10z m50 0 c-17 -7 -17 -9 -2 -9 9 -1 17 -3 17 -5 0 -2 3 -11 6 -20 3 -9 1
-16 -6 -16 -6 0 -8 5 -5 10 3 6 1 10 -4 10 -6 0 -11 -4 -11 -10 0 -5 -7 -7
-15 -4 -29 11 -9 55 25 53 10 0 9 -3 -5 -9z m-58 -37 c-13 -13 -20 -14 -29 -5
-9 9 -6 14 13 21 31 11 37 5 16 -16z m27 -18 c3 -9 0 -15 -9 -15 -8 0 -15 7
-15 15 0 8 4 15 9 15 5 0 11 -7 15 -15z m-163 -90 c5 4 6 -1 3 -10 -4 -9 -13
-14 -21 -11 -9 4 -17 -1 -20 -14 -6 -22 -18 -26 -28 -10 -4 6 -12 7 -18 3 -7
-3 -4 3 7 15 10 12 22 19 26 17 4 -3 14 2 21 11 8 10 15 12 17 5 2 -6 8 -9 13
-6z m-59 -90 c3 -14 1 -25 -4 -25 -10 0 -28 42 -21 53 7 13 20 -1 25 -28z"/>
<path d="M1208 2623 c7 -3 16 -2 19 1 4 3 -2 6 -13 5 -11 0 -14 -3 -6 -6z"/>
<path d="M1846 2604 c-5 -14 -9 -14 -24 -3 -15 13 -16 12 -3 -4 9 -12 17 -14
26 -7 6 5 14 8 17 5 2 -3 5 2 5 10 0 20 -13 19 -21 -1z"/>
<path d="M1754 2592 c4 -7 2 -21 -5 -30 -12 -15 -11 -15 6 0 16 15 17 20 6 30
-11 11 -13 10 -7 0z"/>
<path d="M1810 2545 c0 -16 16 -20 24 -6 3 5 -1 11 -9 15 -9 3 -15 0 -15 -9z"/>
<path d="M1850 2540 c0 -5 5 -10 11 -10 5 0 7 5 4 10 -3 6 -8 10 -11 10 -2 0
-4 -4 -4 -10z"/>
<path d="M1540 2564 c0 -8 5 -12 10 -9 6 4 8 11 5 16 -9 14 -15 11 -15 -7z"/>
<path d="M1930 2515 c0 -14 4 -25 9 -25 5 0 8 11 7 25 -1 33 -16 33 -16 0z"/>
<path d="M756 2551 c-4 -7 -5 -15 -2 -18 9 -9 19 4 14 18 -4 11 -6 11 -12 0z"/>
<path d="M820 2476 c0 -2 8 -10 18 -17 15 -13 16 -12 3 4 -13 16 -21 21 -21
13z"/>
<path d="M810 2350 c0 -5 5 -10 11 -10 5 0 7 5 4 10 -3 6 -8 10 -11 10 -2 0
-4 -4 -4 -10z"/>
<path d="M2090 2430 c0 -14 15 -19 29 -11 9 6 7 10 -8 14 -12 3 -21 1 -21 -3z"/>
<path d="M1000 2442 c0 -5 7 -9 15 -9 8 0 12 4 9 9 -3 4 -9 8 -15 8 -5 0 -9
-4 -9 -8z"/>
<path d="M1170 2283 c0 -4 5 -15 10 -23 8 -13 10 -13 10 2 0 9 -4 20 -10 23
-5 3 -10 3 -10 -2z"/>
<path d="M1175 2220 c3 -5 11 -10 16 -10 6 0 7 5 4 10 -3 6 -11 10 -16 10 -6
0 -7 -4 -4 -10z"/>
<path d="M2253 2398 c4 -11 0 -19 -12 -23 -13 -4 -17 -12 -14 -25 3 -11 9 -20
13 -20 5 0 6 10 2 23 -5 20 -4 21 12 8 15 -13 17 -12 12 14 -3 15 -8 30 -12
34 -4 3 -4 -2 -1 -11z"/>
<path d="M2380 2440 c-9 -6 -10 -10 -3 -10 6 0 15 5 18 10 8 12 4 12 -15 0z"/>
<path d="M2456 2374 c-3 -8 -9 -13 -14 -10 -4 2 -8 -5 -9 -17 0 -12 1 -16 4
-9 3 8 19 22 37 33 27 16 28 19 10 19 -12 0 -25 -7 -28 -16z"/>
<path d="M2435 2310 c3 -5 8 -10 11 -10 2 0 4 5 4 10 0 6 -5 10 -11 10 -5 0
-7 -4 -4 -10z"/>
<path d="M2477 2280 c-3 -11 -1 -20 4 -20 5 0 9 9 9 20 0 11 -2 20 -4 20 -2 0
-6 -9 -9 -20z"/>
<path d="M2265 2291 c-3 -5 -2 -12 3 -15 5 -3 9 1 9 9 0 17 -3 19 -12 6z"/>
<path d="M2418 2253 c7 -3 16 -2 19 1 4 3 -2 6 -13 5 -11 0 -14 -3 -6 -6z"/>
<path d="M2390 2240 c0 -5 5 -10 11 -10 5 0 7 5 4 10 -3 6 -8 10 -11 10 -2 0
-4 -4 -4 -10z"/>
<path d="M2450 2089 c0 -5 5 -7 10 -4 6 3 10 8 10 11 0 2 -4 4 -10 4 -5 0 -10
-5 -10 -11z"/>
<path d="M450 2215 c0 -8 4 -15 10 -15 5 0 7 7 4 15 -4 8 -8 15 -10 15 -2 0
-4 -7 -4 -15z"/>
<path d="M743 2274 c3 -17 0 -20 -27 -17 -28 2 -29 2 -6 -6 14 -4 24 -13 23
-19 -4 -18 14 -15 21 3 3 8 11 14 18 13 6 -2 14 6 16 16 3 15 0 17 -14 12 -10
-4 -21 -1 -27 6 -6 9 -7 7 -4 -8z"/>
<path d="M638 2253 c7 -3 16 -2 19 1 4 3 -2 6 -13 5 -11 0 -14 -3 -6 -6z"/>
<path d="M761 2228 c-1 -20 14 -24 25 -6 4 6 3 8 -4 4 -5 -3 -13 0 -15 6 -3 8
-6 6 -6 -4z"/>
<path d="M555 2220 c3 -5 1 -10 -4 -10 -6 0 -11 -7 -11 -16 0 -8 -4 -12 -10
-9 -5 3 -10 1 -10 -4 0 -19 17 -12 34 14 19 29 20 35 5 35 -5 0 -7 -4 -4 -10z"/>
<path d="M1025 2070 c3 -5 8 -10 11 -10 2 0 4 5 4 10 0 6 -5 10 -11 10 -5 0
-7 -4 -4 -10z"/>
<path d="M1735 2281 c3 -5 -1 -11 -7 -14 -10 -3 -10 -7 -1 -17 9 -9 13 -8 22
8 8 16 7 21 -5 26 -8 3 -13 2 -9 -3z"/>
<path d="M2610 2240 c-9 -6 -10 -10 -3 -10 6 0 15 5 18 10 8 12 4 12 -15 0z"/>
<path d="M2616 2162 c-2 -4 -1 -14 3 -21 6 -9 11 -10 15 -2 4 6 2 11 -4 11 -6
0 -8 5 -5 10 3 6 4 10 1 10 -3 0 -7 -4 -10 -8z"/>
<path d="M2160 2226 c0 -2 8 -10 18 -17 15 -13 16 -12 3 4 -13 16 -21 21 -21
13z"/>
<path d="M2062 2145 c-15 -33 -15 -32 8 -38 17 -4 18 -1 13 27 -8 40 -8 40
-21 11z"/>
<path d="M2200 2134 c0 -1 6 -7 14 -13 10 -9 15 -8 19 2 3 8 -3 13 -14 13 -11
0 -19 -1 -19 -2z"/>
<path d="M2086 2043 c-6 -14 -5 -15 5 -6 7 7 10 15 7 18 -3 3 -9 -2 -12 -12z"/>
<path d="M2121 1997 c-13 -21 -12 -21 5 -5 10 10 16 20 13 22 -3 3 -11 -5 -18
-17z"/>
<path d="M2335 2009 c-4 -6 -13 -8 -21 -5 -8 3 -14 -1 -14 -10 0 -12 4 -13 23
-2 12 7 26 11 30 10 5 -1 6 2 2 8 -8 13 -12 13 -20 -1z"/>
<path d="M2195 1860 c-3 -5 -1 -10 4 -10 6 0 11 5 11 10 0 6 -2 10 -4 10 -3 0
-8 -4 -11 -10z"/>
<path d="M2135 1810 c-3 -5 -2 -18 4 -27 7 -14 9 -12 8 10 -2 30 -3 31 -12 17z"/>
<path d="M2243 1780 c-1 -11 3 -23 9 -26 15 -10 29 18 16 33 -15 18 -24 16
-25 -7z"/>
<path d="M2067 1773 c3 -7 6 -13 8 -13 1 0 7 6 13 13 8 10 6 13 -7 13 -11 0
-17 -6 -14 -13z"/>
<path d="M900 2165 c-10 -12 -10 -15 3 -15 19 0 31 16 18 24 -5 3 -14 -1 -21
-9z"/>
<path d="M1740 2065 c-13 -16 26 -13 42 3 8 8 5 11 -11 9 -12 -1 -26 -6 -31
-12z"/>
<path d="M1273 2042 c-9 -15 -8 -19 3 -19 8 0 14 9 14 19 0 10 -1 18 -3 18 -1
0 -7 -8 -14 -18z"/>
<path d="M1360 2020 c-13 -8 -13 -11 -1 -19 7 -5 10 -14 7 -20 -4 -6 0 -11 8
-11 19 0 20 12 4 28 -10 10 -10 15 2 22 8 5 11 10 5 10 -5 0 -17 -5 -25 -10z"/>
<path d="M1302 1978 c2 -6 10 -13 16 -14 7 -1 8 0 2 3 -5 2 -8 9 -4 14 3 5 0
9 -6 9 -7 0 -10 -5 -8 -12z"/>
<path d="M1407 1943 c-12 -11 -8 -19 12 -20 14 -1 18 3 14 13 -6 15 -16 18
-26 7z"/>
<path d="M390 2016 c0 -2 7 -9 15 -16 9 -7 15 -8 15 -2 0 5 -7 12 -15 16 -8 3
-15 4 -15 2z"/>
<path d="M2376 1898 c3 -4 9 -8 15 -8 5 0 9 4 9 8 0 5 -7 9 -15 9 -8 0 -12 -4
-9 -9z"/>
<path d="M2761 1824 c0 -11 3 -14 6 -6 3 7 2 16 -1 19 -3 4 -6 -2 -5 -13z"/>
<path d="M2750 1797 c0 -3 12 -12 26 -22 15 -9 23 -12 20 -6 -7 11 -46 35 -46
28z"/>
<path d="M2693 1735 c0 -8 4 -12 9 -9 4 3 8 9 8 15 0 5 -4 9 -8 9 -5 0 -9 -7
-9 -15z"/>
<path d="M1601 1724 c0 -11 3 -14 6 -6 3 7 2 16 -1 19 -3 4 -6 -2 -5 -13z"/>
<path d="M2363 1702 c-3 -12 -12 -22 -19 -22 -9 0 -14 -10 -13 -27 0 -27 0
-28 10 -5 5 13 13 21 18 18 5 -3 11 7 14 22 6 33 -2 45 -10 14z"/>
<path d="M2287 1683 c-13 -13 -7 -21 13 -16 11 3 17 9 14 14 -6 11 -18 12 -27
2z"/>
<path d="M2570 1660 c0 -5 5 -10 11 -10 5 0 7 5 4 10 -3 6 -8 10 -11 10 -2 0
-4 -4 -4 -10z"/>
<path d="M2405 1640 c-3 -5 1 -10 10 -10 9 0 13 5 10 10 -3 6 -8 10 -10 10 -2
0 -7 -4 -10 -10z"/>
<path d="M2404 1595 c2 -13 9 -31 16 -40 7 -9 10 -25 6 -41 -6 -24 -6 -25 9
-10 15 15 15 19 -5 51 -12 19 -19 39 -16 44 4 5 2 12 -3 15 -5 4 -8 -5 -7 -19z"/>
<path d="M2474 1542 c-9 -5 -8 -10 1 -19 11 -10 13 -9 12 7 -1 11 -1 20 -2 20
0 0 -5 -4 -11 -8z"/>
<path d="M2520 1530 c0 -11 4 -20 9 -20 17 0 19 15 5 28 -12 11 -14 9 -14 -8z"/>
<path d="M1125 1740 c-3 -5 -1 -10 4 -10 6 0 11 5 11 10 0 6 -2 10 -4 10 -3 0
-8 -4 -11 -10z"/>
<path d="M1129 1702 c-16 -19 -15 -42 2 -42 6 0 7 4 4 10 -3 5 -1 19 5 30 13
25 9 26 -11 2z"/>
<path d="M1326 1652 c-3 -5 -19 -7 -37 -4 -24 3 -30 1 -27 -9 3 -8 19 -14 36
-15 17 0 29 2 27 4 -3 3 0 11 6 19 6 7 9 13 6 13 -3 0 -8 -4 -11 -8z"/>
<path d="M1613 1633 c-19 -7 -16 -26 9 -47 20 -18 21 -18 13 0 -4 11 -7 27 -7
37 0 9 0 17 -1 16 -1 0 -8 -3 -14 -6z"/>
<path d="M1568 1603 c7 -3 16 -2 19 1 4 3 -2 6 -13 5 -11 0 -14 -3 -6 -6z"/>
<path d="M1545 1450 c-4 -6 1 -7 11 -3 12 4 15 3 10 -5 -4 -7 -1 -12 8 -12 21
0 21 16 0 24 -21 8 -22 8 -29 -4z"/>
<path d="M2180 1612 c0 -5 7 -15 15 -22 8 -7 15 -9 15 -6 0 4 -7 14 -15 22 -8
9 -15 11 -15 6z"/>
<path d="M2160 1530 c0 -5 5 -10 11 -10 5 0 7 5 4 10 -3 6 -8 10 -11 10 -2 0
-4 -4 -4 -10z"/>
<path d="M2170 1455 c0 -8 4 -15 10 -15 5 0 7 7 4 15 -4 8 -8 15 -10 15 -2 0
-4 -7 -4 -15z"/>
<path d="M2136 1415 c-9 -26 -7 -32 5 -12 6 10 9 21 6 23 -2 3 -7 -2 -11 -11z"/>
<path d="M1900 1341 c0 -9 24 -21 43 -21 6 0 2 7 -9 15 -22 17 -34 19 -34 6z"/>
<path d="M1380 1493 c0 -19 17 -24 30 -8 9 10 9 15 1 15 -6 0 -11 -6 -11 -12
0 -9 -4 -8 -10 2 -6 9 -10 10 -10 3z"/>
<path d="M2155 1341 c-3 -5 -1 -12 5 -16 5 -3 10 1 10 9 0 18 -6 21 -15 7z"/>
<path d="M2051 1324 c0 -11 3 -14 6 -6 3 7 2 16 -1 19 -3 4 -6 -2 -5 -13z"/>
<path d="M2467 1204 c2 -7 12 -11 21 -10 21 3 13 20 -10 21 -9 1 -14 -4 -11
-11z"/>
<path d="M1665 1210 c3 -5 8 -10 11 -10 2 0 4 5 4 10 0 6 -5 10 -11 10 -5 0
-7 -4 -4 -10z"/>
<path d="M1343 1155 c2 -14 6 -25 10 -25 4 0 10 0 13 0 4 0 1 7 -6 15 -6 8 -9
19 -5 25 3 5 1 10 -5 10 -6 0 -9 -11 -7 -25z"/>
<path d="M1317 1109 c7 -7 15 -10 18 -7 3 3 -2 9 -12 12 -14 6 -15 5 -6 -5z"/>
<path d="M1393 2799 c0 -23 3 -27 9 -15 5 9 7 20 3 25 -3 5 1 12 7 14 9 4 8 6
-3 6 -11 1 -16 -8 -16 -30z"/>
<path d="M1570 2720 c20 -13 33 -13 25 0 -3 6 -14 10 -23 10 -15 0 -15 -2 -2
-10z"/>
<path d="M1923 2693 c0 -7 4 -10 8 -7 4 2 12 -3 17 -12 6 -11 11 -13 16 -5 4
6 2 11 -4 11 -7 0 -10 6 -7 13 3 7 -3 13 -12 13 -10 0 -18 -6 -18 -13z"/>
<path d="M1950 2645 c0 -5 5 -17 10 -25 5 -8 10 -10 10 -5 0 6 -5 17 -10 25
-5 8 -10 11 -10 5z"/>
<path d="M2119 2633 c-13 -16 -12 -17 4 -4 9 7 17 15 17 17 0 8 -8 3 -21 -13z"/>
<path d="M2401 2617 c-13 -21 -12 -21 5 -5 10 10 16 20 13 22 -3 3 -11 -5 -18
-17z"/>
<path d="M2450 2621 c0 -6 4 -13 10 -16 6 -3 7 1 4 9 -7 18 -14 21 -14 7z"/>
<path d="M665 2600 c-3 -5 -2 -10 4 -10 5 0 13 5 16 10 3 6 2 10 -4 10 -5 0
-13 -4 -16 -10z"/>
<path d="M620 2556 c0 -2 7 -7 16 -10 8 -3 12 -2 9 4 -6 10 -25 14 -25 6z"/>
<path d="M2672 2294 c4 -21 22 -23 26 -1 2 10 -3 17 -13 17 -10 0 -15 -6 -13
-16z"/>
<path d="M670 2102 c0 -4 16 -25 36 -47 20 -22 32 -33 28 -25 -5 8 -7 23 -6
32 2 13 -1 16 -13 12 -11 -5 -18 0 -22 15 -5 20 -23 30 -23 13z"/>
<path d="M663 2059 c-2 -23 3 -25 10 -4 4 8 3 16 -1 19 -4 3 -9 -4 -9 -15z"/>
<path d="M595 2031 c-16 -3 -31 -12 -32 -18 -3 -15 13 -17 22 -3 3 6 15 10 26
10 10 0 19 5 19 10 0 6 -1 9 -2 9 -2 -1 -16 -4 -33 -8z"/>
<path d="M750 1983 c0 -15 29 -49 30 -35 0 7 -7 20 -15 28 -8 9 -15 11 -15 7z"/>
<path d="M933 1855 c18 -13 18 -14 0 -24 -17 -9 -17 -10 3 -8 27 1 28 34 1 41
-21 5 -21 4 -4 -9z"/>
<path d="M608 1814 c9 -13 21 -24 26 -24 5 0 2 8 -7 18 -10 10 -15 21 -12 24
3 2 -1 5 -9 5 -12 0 -11 -5 2 -23z"/>
<path d="M638 1833 c7 -3 16 -2 19 1 4 3 -2 6 -13 5 -11 0 -14 -3 -6 -6z"/>
<path d="M553 1798 c-22 -29 -24 -41 -3 -20 12 13 20 25 17 28 -2 2 -9 -1 -14
-8z"/>
<path d="M934 1803 c10 -11 36 -12 36 -2 0 5 -10 9 -22 9 -12 0 -18 -3 -14 -7z"/>
<path d="M3015 1790 c-3 -5 -1 -10 4 -10 6 0 11 5 11 10 0 6 -2 10 -4 10 -3 0
-8 -4 -11 -10z"/>
<path d="M575 1770 c3 -5 8 -10 11 -10 2 0 4 5 4 10 0 6 -5 10 -11 10 -5 0 -7
-4 -4 -10z"/>
<path d="M797 1763 c-4 -3 -7 -14 -7 -24 0 -10 -7 -20 -15 -22 -11 -4 -11 -5
2 -3 9 0 20 12 24 26 7 26 13 10 9 -25 -1 -11 1 -17 4 -14 3 3 8 20 10 37 3
30 -10 43 -27 25z"/>
<path d="M453 1742 c10 -10 16 -21 14 -23 -2 -2 5 -12 16 -22 19 -19 19 -18
12 5 -6 22 -6 22 9 4 9 -11 16 -14 16 -8 0 9 5 10 19 2 11 -5 23 -10 28 -10 4
1 -9 10 -30 21 -22 11 -41 18 -44 15 -7 -7 -32 17 -26 27 2 4 -4 7 -13 7 -16
0 -16 -1 -1 -18z"/>
<path d="M400 1743 c0 -4 5 -15 10 -23 8 -13 10 -13 10 2 0 9 -4 20 -10 23 -5
3 -10 3 -10 -2z"/>
<path d="M867 1718 c2 -5 10 -8 18 -8 8 0 16 3 18 8 3 4 -5 7 -18 7 -13 0 -21
-3 -18 -7z"/>
<path d="M377 1690 c7 -8 87 -30 91 -25 3 2 -7 7 -22 11 -14 3 -26 10 -26 14
0 4 -11 7 -24 6 -13 0 -22 -3 -19 -6z"/>
<path d="M819 1668 c-2 -40 2 -53 22 -70 11 -10 24 -30 29 -45 7 -25 8 -26 9
-5 1 13 -10 33 -22 45 -30 28 -36 46 -26 75 5 13 5 22 -1 22 -6 0 -11 -10 -11
-22z"/>
<path d="M881 1681 c-10 -7 -7 -9 12 -8 14 1 23 5 20 10 -6 9 -15 9 -32 -2z"/>
<path d="M590 1666 c0 -2 8 -10 18 -17 15 -13 16 -12 3 4 -13 16 -21 21 -21
13z"/>
<path d="M508 1643 c17 -9 32 -24 33 -32 0 -11 2 -12 6 -3 2 6 9 12 14 12 6 0
7 -4 4 -10 -3 -6 1 -7 9 -4 10 4 16 1 16 -9 0 -10 -8 -14 -23 -13 -20 2 -23
-1 -19 -21 2 -13 -1 -23 -7 -23 -6 0 -11 -5 -11 -10 0 -6 8 -5 19 2 11 7 17
16 15 20 -3 4 -3 12 1 18 8 13 35 1 35 -18 0 -10 8 -7 25 12 14 15 25 30 25
34 0 4 -7 -1 -15 -12 -7 -10 -18 -15 -24 -11 -17 10 -13 25 7 26 10 0 12 3 4
6 -6 2 -10 8 -7 13 3 4 -4 6 -15 3 -11 -3 -20 -1 -20 5 0 6 -8 8 -18 5 -10 -2
-24 3 -31 11 -8 9 -23 16 -35 15 -17 0 -15 -3 12 -16z"/>
<path d="M930 1640 c0 -5 -6 -10 -13 -10 -7 0 -17 -8 -24 -18 -9 -15 -8 -19 2
-19 8 0 13 3 12 7 -1 4 9 17 23 28 14 12 19 21 13 22 -7 0 -13 -4 -13 -10z"/>
<path d="M3046 1635 c4 -8 8 -15 10 -15 2 0 4 7 4 15 0 8 -4 15 -10 15 -5 0
-7 -7 -4 -15z"/>
<path d="M744 1609 c-3 -6 -17 -8 -30 -5 -13 4 -24 2 -24 -3 0 -16 40 -19 55
-4 8 8 15 16 15 19 0 8 -9 4 -16 -7z"/>
<path d="M930 1599 c0 -5 5 -7 10 -4 6 3 10 8 10 11 0 2 -4 4 -10 4 -5 0 -10
-5 -10 -11z"/>
<path d="M3050 1600 c0 -5 5 -10 11 -10 5 0 7 5 4 10 -3 6 -8 10 -11 10 -2 0
-4 -4 -4 -10z"/>
<path d="M990 1526 c0 -2 7 -6 15 -10 8 -3 15 -1 15 4 0 6 -7 10 -15 10 -8 0
-15 -2 -15 -4z"/>
<path d="M601 1508 c-1 -21 15 -32 25 -17 4 7 3 9 -4 5 -6 -3 -13 2 -15 11 -4
16 -5 16 -6 1z"/>
<path d="M975 1490 c-3 -6 1 -7 9 -4 18 7 21 14 7 14 -6 0 -13 -4 -16 -10z"/>
<path d="M2867 1389 c7 -7 15 -10 18 -7 3 3 -2 9 -12 12 -14 6 -15 5 -6 -5z"/>
<path d="M1479 1253 c-13 -17 -13 -17 6 -3 11 8 22 16 24 17 2 2 0 3 -6 3 -6
0 -17 -8 -24 -17z"/>
<path d="M1483 1224 c9 -3 14 -10 11 -16 -4 -6 -2 -8 4 -4 5 3 13 0 16 -6 3
-7 5 -4 3 7 -1 13 -10 21 -27 22 -15 1 -18 0 -7 -3z"/>
<path d="M1522 1160 c0 -14 2 -19 5 -12 2 6 2 18 0 25 -3 6 -5 1 -5 -13z"/>
<path d="M2855 1129 c-9 -14 -2 -20 14 -10 8 6 9 11 3 15 -6 3 -14 1 -17 -5z"/>
<path d="M1110 1076 c0 -2 7 -7 16 -10 8 -3 12 -2 9 4 -6 10 -25 14 -25 6z"/>
<path d="M2795 1040 c-3 -5 -1 -10 4 -10 6 0 11 5 11 10 0 6 -2 10 -4 10 -3 0
-8 -4 -11 -10z"/>
<path d="M2459 995 c-9 -9 1 -45 13 -45 5 0 6 -4 3 -10 -3 -6 1 -7 10 -4 13 6
14 8 1 18 -8 6 -16 19 -18 29 -1 11 -6 16 -9 12z"/>
<path d="M2555 841 c4 -8 2 -17 -6 -22 -9 -6 -10 -9 -2 -9 19 0 27 21 13 33
-10 9 -11 9 -5 -2z"/>
<path d="M2484 812 c-17 -11 -13 -41 5 -34 10 4 11 7 3 10 -10 3 -10 7 -1 18
13 15 10 18 -7 6z"/>
<path d="M2516 792 c-3 -4 4 -9 15 -9 23 -2 25 3 4 10 -8 4 -16 3 -19 -1z"/>
<path d="M2567 789 c7 -7 15 -10 18 -7 3 3 -2 9 -12 12 -14 6 -15 5 -6 -5z"/>
<path d="M2396 777 c3 -10 9 -15 12 -12 3 3 0 11 -7 18 -10 9 -11 8 -5 -6z"/>
<path d="M2503 735 c0 -8 4 -15 9 -15 4 0 8 4 8 9 0 6 -4 12 -8 15 -5 3 -9 -1
-9 -9z"/>
<path d="M1990 521 c0 -6 6 -11 13 -11 8 0 7 -4 -3 -11 -13 -9 -12 -10 3 -5
15 5 22 -5 18 -27 -1 -5 3 -6 9 -2 12 7 0 35 -24 55 -11 8 -16 9 -16 1z"/>
</g>
</svg>
